<svg version="1.1" class="highcharts-root" style="font-family: Helvetica, Arial, sans-serif; font-size: 1rem;" xmlns="http://www.w3.org/2000/svg" width="486" height="400" viewBox="0 0 486 400" role="img" aria-label="Apple Picking"><desc>Created with Highcharts 11.4.3</desc><defs><filter id="highcharts-drop-shadow-0"><feDropShadow dx="1" dy="1" flood-color="#000000" flood-opacity="0.75" stdDeviation="2.5"/></filter><clipPath id="highcharts-bcwo023-5-"><rect x="0" y="0" width="409" height="235" fill="none"/></clipPath></defs><rect fill="#ffffff" class="highcharts-background" filter="none" x="0" y="0" width="486" height="400" rx="0" ry="0"/><rect fill="none" class="highcharts-plot-background" x="67" y="52" width="409" height="235" filter="none"/><rect fill="none" class="highcharts-plot-border" data-z-index="1" stroke="#cccccc" stroke-width="0" x="67" y="52" width="409" height="235"/><g class="highcharts-grid highcharts-xaxis-grid" data-z-index="1"><path fill="none" stroke="#e6e6e6" stroke-width="0" stroke-dasharray="none" data-z-index="1" class="highcharts-grid-line" d="M 169.5 52 L 169.5 287" opacity="1"/><path fill="none" stroke="#e6e6e6" stroke-width="0" stroke-dasharray="none" data-z-index="1" class="highcharts-grid-line" d="M 271.5 52 L 271.5 287" opacity="1"/><path fill="none" stroke="#e6e6e6" stroke-width="0" stroke-dasharray="none" data-z-index="1" class="highcharts-grid-line" d="M 373.5 52 L 373.5 287" opacity="1"/><path fill="none" stroke="#e6e6e6" stroke-width="0" stroke-dasharray="none" data-z-index="1" class="highcharts-grid-line" d="M 476.5 52 L 476.5 287" opacity="1"/><path fill="none" stroke="#e6e6e6" stroke-width="0" stroke-dasharray="none" data-z-index="1" class="highcharts-grid-line" d="M 67.5 52 L 67.5 287" opacity="1"/></g><g class="highcharts-grid highcharts-yaxis-grid" data-z-index="1"><path fill="none" stroke="#e6e6e6" stroke-width="1" stroke-dasharray="none" data-z-index="1" class="highcharts-grid-line" d="M 67 287.5 L 476 287.5" opacity="1"/><path fill="none" stroke="#e6e6e6" stroke-width="1" stroke-dasharray="none" data-z-index="1" class="highcharts-grid-line" d="M 67 208.5 L 476 208.5" opacity="1"/><path fill="none" stroke="#e6e6e6" stroke-width="1" stroke-dasharray="none" data-z-index="1" class="highcharts-grid-line" d="M 67 130.5 L 476 130.5" opacity="1"/><path fill="none" stroke="#e6e6e6" stroke-width="1" stroke-dasharray="none" data-z-index="1" class="highcharts-grid-line" d="M 67 52.5 L 476 52.5" opacity="1"/></g><g class="highcharts-axis highcharts-xaxis" data-z-index="2"><text x="271.5" data-z-index="7" text-anchor="middle" transform="translate(0,0)" class="highcharts-axis-title" style="color: rgb(102, 102, 102); font-size: 0.8em; fill: rgb(102, 102, 102);" y="337">Students</text><path fill="none" class="highcharts-axis-line" stroke="#333333" stroke-width="1" data-z-index="7" d="M 67 287.5 L 476 287.5"/></g><g class="highcharts-axis highcharts-yaxis" data-z-index="2"><text x="25.766666412353516" data-z-index="7" text-anchor="middle" transform="translate(0,0) rotate(270 25.766666412353516 169.5)" class="highcharts-axis-title" style="color: rgb(102, 102, 102); font-size: 0.8em; fill: rgb(102, 102, 102);" y="169.5">Apples</text><path fill="none" class="highcharts-axis-line" stroke="#333333" stroke-width="0" data-z-index="7" d="M 67 52 L 67 287"/></g><g class="highcharts-series-group" data-z-index="3" filter="none"><g class="highcharts-series highcharts-series-0 highcharts-column-series highcharts-color-0 highcharts-tracker" data-z-index="0.1" opacity="1" transform="translate(67,52) scale(1 1)" clip-path="url(#highcharts-bcwo023-5-)"><path fill="#2caffe" d="M 29.5 90.5 L 73.5 90.5 A 3 3 0 0 1 76.5 93.5 L 76.5 191.5 A 0 0 0 0 1 76.5 191.5 L 26.5 191.5 A 0 0 0 0 1 26.5 191.5 L 26.5 93.5 A 3 3 0 0 1 29.5 90.5 Z" stroke="#ffffff" stroke-width="1" opacity="1" filter="none" class="highcharts-point highcharts-color-0"/><path fill="#2caffe" d="M 131.5 128.5 L 175.5 128.5 A 3 3 0 0 1 178.5 131.5 L 178.5 171.5 A 0 0 0 0 1 178.5 171.5 L 128.5 171.5 A 0 0 0 0 1 128.5 171.5 L 128.5 131.5 A 3 3 0 0 1 131.5 128.5 Z" stroke="#ffffff" stroke-width="1" opacity="1" filter="none" class="highcharts-point highcharts-color-0"/><path fill="#2caffe" d="M 234.5 70.5 L 278.5 70.5 A 3 3 0 0 1 281.5 73.5 L 281.5 133.5 A 0 0 0 0 1 281.5 133.5 L 231.5 133.5 A 0 0 0 0 1 231.5 133.5 L 231.5 73.5 A 3 3 0 0 1 234.5 70.5 Z" stroke="#ffffff" stroke-width="1" opacity="1" filter="none" class="highcharts-point highcharts-color-0"/><path fill="#2caffe" d="M 336.5 32.5 L 380.5 32.5 A 3 3 0 0 1 383.5 35.5 L 383.5 133.5 A 0 0 0 0 1 383.5 133.5 L 333.5 133.5 A 0 0 0 0 1 333.5 133.5 L 333.5 35.5 A 3 3 0 0 1 336.5 32.5 Z" stroke="#ffffff" stroke-width="1" opacity="1" filter="none" class="highcharts-point highcharts-color-0"/></g><g class="highcharts-markers highcharts-series-0 highcharts-column-series highcharts-color-0" data-z-index="0.1" opacity="1" transform="translate(67,52) scale(1 1)" clip-path="none"/><g class="highcharts-series highcharts-series-1 highcharts-column-series highcharts-color-1 highcharts-tracker" data-z-index="0.1" opacity="1" transform="translate(67,52) scale(1 1)" clip-path="url(#highcharts-bcwo023-5-)"><path fill="#544fc5" d="M 26.5 191.5 L 76.5 191.5 A 0 0 0 0 1 76.5 191.5 L 76.5 235.5 A 0 0 0 0 1 76.5 235.5 L 26.5 235.5 A 0 0 0 0 1 26.5 235.5 L 26.5 191.5 A 0 0 0 0 1 26.5 191.5 Z" stroke="#ffffff" stroke-width="1" opacity="1" filter="none" class="highcharts-point highcharts-color-1"/><path fill="#544fc5" d="M 128.5 171.5 L 178.5 171.5 A 0 0 0 0 1 178.5 171.5 L 178.5 235.5 A 0 0 0 0 1 178.5 235.5 L 128.5 235.5 A 0 0 0 0 1 128.5 235.5 L 128.5 171.5 A 0 0 0 0 1 128.5 171.5 Z" stroke="#ffffff" stroke-width="1" opacity="1" filter="none" class="highcharts-point highcharts-color-1"/><path fill="#544fc5" d="M 231.5 133.5 L 281.5 133.5 A 0 0 0 0 1 281.5 133.5 L 281.5 235.5 A 0 0 0 0 1 281.5 235.5 L 231.5 235.5 A 0 0 0 0 1 231.5 235.5 L 231.5 133.5 A 0 0 0 0 1 231.5 133.5 Z" stroke="#ffffff" stroke-width="1" opacity="1" filter="none" class="highcharts-point highcharts-color-1"/><path fill="#544fc5" d="M 333.5 133.5 L 383.5 133.5 A 0 0 0 0 1 383.5 133.5 L 383.5 235.5 A 0 0 0 0 1 383.5 235.5 L 333.5 235.5 A 0 0 0 0 1 333.5 235.5 L 333.5 133.5 A 0 0 0 0 1 333.5 133.5 Z" stroke="#ffffff" stroke-width="1" opacity="1" filter="none" class="highcharts-point highcharts-color-1"/></g><g class="highcharts-markers highcharts-series-1 highcharts-column-series highcharts-color-1" data-z-index="0.1" opacity="1" transform="translate(67,52) scale(1 1)" clip-path="none"/></g><text x="243" text-anchor="middle" class="highcharts-title" data-z-index="4" style="font-size: 1.2em; color: rgb(51, 51, 51); font-weight: bold; fill: rgb(51, 51, 51);" y="25">Apple Picking</text><text x="243" text-anchor="middle" class="highcharts-subtitle" data-z-index="4" style="color: rgb(102, 102, 102); font-size: 0.8em; fill: rgb(102, 102, 102);" y="51"/><text x="10" text-anchor="start" class="highcharts-caption" data-z-index="4" style="color: rgb(102, 102, 102); font-size: 0.8em; fill: rgb(102, 102, 102);" y="397"/><g class="highcharts-legend highcharts-no-tooltip" data-z-index="7" transform="translate(138,355)"><rect fill="none" class="highcharts-legend-box" rx="0" ry="0" stroke="#999999" stroke-width="0" filter="none" x="0" y="0" width="210" height="30"/><g data-z-index="1"><g><g class="highcharts-legend-item highcharts-column-series highcharts-color-0 highcharts-series-0" data-z-index="1" transform="translate(8,3)"><text x="21" y="17" style="color: rgb(51, 51, 51); cursor: pointer; font-size: 0.8em; text-decoration: none; fill: rgb(51, 51, 51);" text-anchor="start" data-z-index="2">Red Apple</text><rect x="2" y="6" rx="6" ry="6" width="12" height="12" fill="#2caffe" class="highcharts-point" data-z-index="3"/></g><g class="highcharts-legend-item highcharts-column-series highcharts-color-1 highcharts-series-1" data-z-index="1" transform="translate(108.73333358764648,3)"><text x="21" y="17" style="color: rgb(51, 51, 51); cursor: pointer; font-size: 0.8em; text-decoration: none; fill: rgb(51, 51, 51);" text-anchor="start" data-z-index="2">Green Apple</text><rect x="2" y="6" rx="6" ry="6" width="12" height="12" fill="#544fc5" class="highcharts-point" data-z-index="3"/></g></g></g></g><g class="highcharts-axis-labels highcharts-xaxis-labels" data-z-index="7"><text x="118.125" style="color: rgb(51, 51, 51); cursor: default; font-size: 0.8em; fill: rgb(51, 51, 51);" text-anchor="middle" transform="translate(0,0)" y="314" opacity="1">Pulip</text><text x="220.375" style="color: rgb(51, 51, 51); cursor: default; font-size: 0.8em; fill: rgb(51, 51, 51);" text-anchor="middle" transform="translate(0,0)" y="314" opacity="1">Anguico</text><text x="322.625" style="color: rgb(51, 51, 51); cursor: default; font-size: 0.8em; fill: rgb(51, 51, 51);" text-anchor="middle" transform="translate(0,0)" y="314" opacity="1">Wishas</text><text x="424.875" style="color: rgb(51, 51, 51); cursor: default; font-size: 0.8em; fill: rgb(51, 51, 51);" text-anchor="middle" transform="translate(0,0)" y="314" opacity="1">Jocelyn</text></g><g class="highcharts-axis-labels highcharts-yaxis-labels" data-z-index="7"><text x="52" style="color: rgb(51, 51, 51); cursor: default; font-size: 0.8em; fill: rgb(51, 51, 51);" text-anchor="end" transform="translate(0,0)" y="290" opacity="1">0</text><text x="52" style="color: rgb(51, 51, 51); cursor: default; font-size: 0.8em; fill: rgb(51, 51, 51);" text-anchor="end" transform="translate(0,0)" y="212" opacity="1">20</text><text x="52" style="color: rgb(51, 51, 51); cursor: default; font-size: 0.8em; fill: rgb(51, 51, 51);" text-anchor="end" transform="translate(0,0)" y="133" opacity="1">40</text><text x="52" style="color: rgb(51, 51, 51); cursor: default; font-size: 0.8em; fill: rgb(51, 51, 51);" text-anchor="end" transform="translate(0,0)" y="55" opacity="1">60</text></g><text x="476" class="highcharts-credits" text-anchor="end" data-z-index="8" style="cursor: pointer; color: rgb(153, 153, 153); font-size: 0.6em; fill: rgb(153, 153, 153);" y="395">Highcharts.com</text></svg>