<svg version="1.1" class="highcharts-root" style="font-family: Helvetica, Arial, sans-serif; font-size: 1rem;" xmlns="http://www.w3.org/2000/svg" width="548" height="400" viewBox="0 0 548 400" role="img" aria-label="Apple Picking"><desc>Created with Highcharts 11.4.3</desc><defs><filter id="highcharts-drop-shadow-0"><feDropShadow dx="1" dy="1" flood-color="#000000" flood-opacity="0.75" stdDeviation="2.5"/></filter><clipPath id="highcharts-bcwo023-5-"><rect x="0" y="0" width="277" height="419" fill="none"/></clipPath><filter id="highcharts-drop-shadow-0-offsetx--1-offsety--1"><feDropShadow dx="-1" dy="-1" flood-color="#000000" flood-opacity="0.75" stdDeviation="2.5"/></filter></defs><rect fill="#ffffff" class="highcharts-background" filter="none" x="0" y="0" width="548" height="400" rx="0" ry="0"/><rect fill="none" class="highcharts-plot-background" x="118" y="10" width="420" height="277" filter="none"/><rect fill="none" class="highcharts-plot-border" data-z-index="1" stroke="#cccccc" stroke-width="0" x="118" y="10" width="420" height="277"/><g class="highcharts-grid highcharts-xaxis-grid" data-z-index="1"><path fill="none" stroke="#e6e6e6" stroke-width="0" stroke-dasharray="none" data-z-index="1" class="highcharts-grid-line" d="M 118 49.5 L 538 49.5" opacity="1"/><path fill="none" stroke="#e6e6e6" stroke-width="0" stroke-dasharray="none" data-z-index="1" class="highcharts-grid-line" d="M 118 89.5 L 538 89.5" opacity="1"/><path fill="none" stroke="#e6e6e6" stroke-width="0" stroke-dasharray="none" data-z-index="1" class="highcharts-grid-line" d="M 118 128.5 L 538 128.5" opacity="1"/><path fill="none" stroke="#e6e6e6" stroke-width="0" stroke-dasharray="none" data-z-index="1" class="highcharts-grid-line" d="M 118 168.5 L 538 168.5" opacity="1"/><path fill="none" stroke="#e6e6e6" stroke-width="0" stroke-dasharray="none" data-z-index="1" class="highcharts-grid-line" d="M 118 207.5 L 538 207.5" opacity="1"/><path fill="none" stroke="#e6e6e6" stroke-width="0" stroke-dasharray="none" data-z-index="1" class="highcharts-grid-line" d="M 118 247.5 L 538 247.5" opacity="1"/><path fill="none" stroke="#e6e6e6" stroke-width="0" stroke-dasharray="none" data-z-index="1" class="highcharts-grid-line" d="M 118 287.5 L 538 287.5" opacity="1"/><path fill="none" stroke="#e6e6e6" stroke-width="0" stroke-dasharray="none" data-z-index="1" class="highcharts-grid-line" d="M 118 10.5 L 538 10.5" opacity="1"/></g><g class="highcharts-grid highcharts-yaxis-grid" data-z-index="1"><path fill="none" stroke="#e6e6e6" stroke-width="1" stroke-dasharray="none" data-z-index="1" class="highcharts-grid-line" d="M 118.5 10 L 118.5 287" opacity="1"/><path fill="none" stroke="#e6e6e6" stroke-width="1" stroke-dasharray="none" data-z-index="1" class="highcharts-grid-line" d="M 188.5 10 L 188.5 287" opacity="1"/><path fill="none" stroke="#e6e6e6" stroke-width="1" stroke-dasharray="none" data-z-index="1" class="highcharts-grid-line" d="M 258.5 10 L 258.5 287" opacity="1"/><path fill="none" stroke="#e6e6e6" stroke-width="1" stroke-dasharray="none" data-z-index="1" class="highcharts-grid-line" d="M 328.5 10 L 328.5 287" opacity="1"/><path fill="none" stroke="#e6e6e6" stroke-width="1" stroke-dasharray="none" data-z-index="1" class="highcharts-grid-line" d="M 398.5 10 L 398.5 287" opacity="1"/><path fill="none" stroke="#e6e6e6" stroke-width="1" stroke-dasharray="none" data-z-index="1" class="highcharts-grid-line" d="M 468.5 10 L 468.5 287" opacity="1"/><path fill="none" stroke="#e6e6e6" stroke-width="1" stroke-dasharray="none" data-z-index="1" class="highcharts-grid-line" d="M 538.5 10 L 538.5 287" opacity="1"/></g><g class="highcharts-axis highcharts-xaxis" data-z-index="2"><text x="26.233333587646484" data-z-index="7" text-anchor="middle" transform="translate(0,0) rotate(270 26.233333587646484 148.5)" class="highcharts-axis-title" style="color: rgb(102, 102, 102); font-size: 0.8em; fill: rgb(102, 102, 102);" y="148.5">Convergence. With Globaler's Main Goodies,<tspan dy="15" x="26.233333587646484">​</tspan>AFFIG, the Res</text><path fill="none" class="highcharts-axis-line" stroke="#333333" stroke-width="1" data-z-index="7" d="M 118.5 10 L 118.5 287"/></g><g class="highcharts-axis highcharts-yaxis" data-z-index="2"><text x="328" data-z-index="7" text-anchor="middle" transform="translate(0,0)" class="highcharts-axis-title" style="color: rgb(102, 102, 102); font-size: 0.8em; fill: rgb(102, 102, 102);" y="337">Number of Students</text><path fill="none" class="highcharts-axis-line" stroke="#333333" stroke-width="0" data-z-index="7" d="M 118 287 L 538 287"/></g><g class="highcharts-series-group" data-z-index="3" filter="none"><g class="highcharts-series highcharts-series-0 highcharts-bar-series highcharts-color-0 highcharts-tracker" data-z-index="0.1" opacity="1" transform="translate(118,10) rotate(90 71.5 348.5) scale(-1 1)" clip-path="url(#highcharts-bcwo023-5-)"><path fill="#2caffe" d="M 250.5 229.5 L 263.5 229.5 A 3 3 0 0 1 266.5 232.5 L 266.5 419.5 A 0 0 0 0 1 266.5 419.5 L 247.5 419.5 A 0 0 0 0 1 247.5 419.5 L 247.5 232.5 A 3 3 0 0 1 250.5 229.5 Z" stroke="#ffffff" stroke-width="1" opacity="1" filter="none" class="highcharts-point highcharts-color-0"/><path fill="#2caffe" d="M 211.5 114.5 L 224.5 114.5 A 3 3 0 0 1 227.5 117.5 L 227.5 419.5 A 0 0 0 0 1 227.5 419.5 L 208.5 419.5 A 0 0 0 0 1 208.5 419.5 L 208.5 117.5 A 3 3 0 0 1 211.5 114.5 Z" stroke="#ffffff" stroke-width="1" opacity="1" filter="none" class="highcharts-point highcharts-color-0"/><path fill="#2caffe" d="M 171.5 218.5 L 184.5 218.5 A 3 3 0 0 1 187.5 221.5 L 187.5 419.5 A 0 0 0 0 1 187.5 419.5 L 168.5 419.5 A 0 0 0 0 1 168.5 419.5 L 168.5 221.5 A 3 3 0 0 1 171.5 218.5 Z" stroke="#ffffff" stroke-width="1" opacity="1" filter="none" class="highcharts-point highcharts-color-0"/><path fill="#2caffe" d="M 132.5 97.5 L 145.5 97.5 A 3 3 0 0 1 148.5 100.5 L 148.5 419.5 A 0 0 0 0 1 148.5 419.5 L 129.5 419.5 A 0 0 0 0 1 129.5 419.5 L 129.5 100.5 A 3 3 0 0 1 132.5 97.5 Z" stroke="#ffffff" stroke-width="1" opacity="1" filter="none" class="highcharts-point highcharts-color-0"/><path fill="#2caffe" d="M 92.5 187.5 L 105.5 187.5 A 3 3 0 0 1 108.5 190.5 L 108.5 419.5 A 0 0 0 0 1 108.5 419.5 L 89.5 419.5 A 0 0 0 0 1 89.5 419.5 L 89.5 190.5 A 3 3 0 0 1 92.5 187.5 Z" stroke="#ffffff" stroke-width="1" opacity="1" filter="none" class="highcharts-point highcharts-color-0"/><path fill="#2caffe" d="M 52.5 156.5 L 65.5 156.5 A 3 3 0 0 1 68.5 159.5 L 68.5 419.5 A 0 0 0 0 1 68.5 419.5 L 49.5 419.5 A 0 0 0 0 1 49.5 419.5 L 49.5 159.5 A 3 3 0 0 1 52.5 156.5 Z" stroke="#ffffff" stroke-width="1" opacity="1" filter="none" class="highcharts-point highcharts-color-0"/><path fill="#2caffe" d="M 13.5 67.5 L 26.5 67.5 A 3 3 0 0 1 29.5 70.5 L 29.5 419.5 A 0 0 0 0 1 29.5 419.5 L 10.5 419.5 A 0 0 0 0 1 10.5 419.5 L 10.5 70.5 A 3 3 0 0 1 13.5 67.5 Z" stroke="#ffffff" stroke-width="1" opacity="1" filter="none" class="highcharts-point highcharts-color-0"/></g><g class="highcharts-markers highcharts-series-0 highcharts-bar-series highcharts-color-0" data-z-index="0.1" opacity="1" transform="translate(118,10) scale(1 1)" clip-path="none"/></g><text x="274" text-anchor="middle" class="highcharts-subtitle" data-z-index="4" style="color: rgb(102, 102, 102); font-size: 0.8em; fill: rgb(102, 102, 102);" y="24"/><text x="10" text-anchor="start" class="highcharts-caption" data-z-index="4" style="color: rgb(102, 102, 102); font-size: 0.8em; fill: rgb(102, 102, 102);" y="397"/><text x="274" text-anchor="middle" class="highcharts-title" data-z-index="4" style="font-size: 1.2em; color: rgb(51, 51, 51); font-weight: bold; fill: rgb(51, 51, 51);" y="25"/><g class="highcharts-data-labels highcharts-series-0 highcharts-bar-series highcharts-color-0 highcharts-tracker" data-z-index="6" opacity="1" transform="translate(118,10) scale(1 1)"><g class="highcharts-label highcharts-data-label highcharts-data-label-color-0" data-z-index="1" filter="none" transform="translate(84,7)"><text x="5" data-z-index="1" y="16" style="color: rgb(0, 0, 0); font-size: 0.7em; font-weight: bold; fill: rgb(0, 0, 0);"><tspan class="highcharts-text-outline" fill="#FFFFFF" stroke="#FFFFFF" stroke-width="2px" stroke-linejoin="round">68<tspan x="5" dy="0">​</tspan></tspan>68</text></g><g class="highcharts-label highcharts-data-label highcharts-data-label-color-0" data-z-index="1" filter="none" transform="translate(139,46)"><text x="5" data-z-index="1" y="16" style="color: rgb(0, 0, 0); font-size: 0.7em; font-weight: bold; fill: rgb(0, 0, 0);"><tspan class="highcharts-text-outline" fill="#FFFFFF" stroke="#FFFFFF" stroke-width="2px" stroke-linejoin="round">109<tspan x="5" dy="0">​</tspan></tspan>109</text></g><g class="highcharts-label highcharts-data-label highcharts-data-label-color-0" data-z-index="1" filter="none" transform="translate(90,86)"><text x="5" data-z-index="1" y="16" style="color: rgb(0, 0, 0); font-size: 0.7em; font-weight: bold; fill: rgb(0, 0, 0);"><tspan class="highcharts-text-outline" fill="#FFFFFF" stroke="#FFFFFF" stroke-width="2px" stroke-linejoin="round">72<tspan x="5" dy="0">​</tspan></tspan>72</text></g><g class="highcharts-label highcharts-data-label highcharts-data-label-color-0" data-z-index="1" filter="none" transform="translate(147,125)"><text x="5" data-z-index="1" y="16" style="color: rgb(0, 0, 0); font-size: 0.7em; font-weight: bold; fill: rgb(0, 0, 0);"><tspan class="highcharts-text-outline" fill="#FFFFFF" stroke="#FFFFFF" stroke-width="2px" stroke-linejoin="round">115<tspan x="5" dy="0">​</tspan></tspan>115</text></g><g class="highcharts-label highcharts-data-label highcharts-data-label-color-0" data-z-index="1" filter="none" transform="translate(105,165)"><text x="5" data-z-index="1" y="16" style="color: rgb(0, 0, 0); font-size: 0.7em; font-weight: bold; fill: rgb(0, 0, 0);"><tspan class="highcharts-text-outline" fill="#FFFFFF" stroke="#FFFFFF" stroke-width="2px" stroke-linejoin="round">83<tspan x="5" dy="0">​</tspan></tspan>83</text></g><g class="highcharts-label highcharts-data-label highcharts-data-label-color-0" data-z-index="1" filter="none" transform="translate(121,205)"><text x="5" data-z-index="1" y="16" style="color: rgb(0, 0, 0); font-size: 0.7em; font-weight: bold; fill: rgb(0, 0, 0);"><tspan class="highcharts-text-outline" fill="#FFFFFF" stroke="#FFFFFF" stroke-width="2px" stroke-linejoin="round">94<tspan x="5" dy="0">​</tspan></tspan>94</text></g><g class="highcharts-label highcharts-data-label highcharts-data-label-color-0" data-z-index="1" filter="none" transform="translate(162,244)"><text x="5" data-z-index="1" y="16" style="color: rgb(0, 0, 0); font-size: 0.7em; font-weight: bold; fill: rgb(0, 0, 0);"><tspan class="highcharts-text-outline" fill="#FFFFFF" stroke="#FFFFFF" stroke-width="2px" stroke-linejoin="round">126<tspan x="5" dy="0">​</tspan></tspan>126</text></g></g><g class="highcharts-legend highcharts-no-tooltip" data-z-index="7" transform="translate(243,355)"><rect fill="none" class="highcharts-legend-box" rx="0" ry="0" stroke="#999999" stroke-width="0" filter="none" x="0" y="0" width="62" height="30"/><g data-z-index="1"><g><g class="highcharts-legend-item highcharts-bar-series highcharts-color-0 highcharts-series-0" data-z-index="1" transform="translate(8,3)"><text x="21" y="17" style="color: rgb(51, 51, 51); cursor: pointer; font-size: 0.8em; text-decoration: none; fill: rgb(51, 51, 51);" text-anchor="start" data-z-index="2">bars</text><rect x="2" y="6" rx="6" ry="6" width="12" height="12" fill="#2caffe" class="highcharts-point" data-z-index="3"/></g></g></g></g><g class="highcharts-axis-labels highcharts-xaxis-labels" data-z-index="7"><text x="103" style="color: rgb(51, 51, 51); cursor: default; font-size: 0.8em; fill: rgb(51, 51, 51);" text-anchor="end" transform="translate(0,0)" y="33" opacity="1">Australia</text><text x="103" style="color: rgb(51, 51, 51); cursor: default; font-size: 0.8em; fill: rgb(51, 51, 51);" text-anchor="end" transform="translate(0,0)" y="72" opacity="1">Canada</text><text x="103" style="color: rgb(51, 51, 51); cursor: default; font-size: 0.8em; fill: rgb(51, 51, 51);" text-anchor="end" transform="translate(0,0)" y="112" opacity="1">China</text><text x="103" style="color: rgb(51, 51, 51); cursor: default; font-size: 0.8em; fill: rgb(51, 51, 51);" text-anchor="end" transform="translate(0,0)" y="151" opacity="1">France</text><text x="103" style="color: rgb(51, 51, 51); cursor: default; font-size: 0.8em; fill: rgb(51, 51, 51);" text-anchor="end" transform="translate(0,0)" y="191" opacity="1">Japan</text><text x="103" style="color: rgb(51, 51, 51); cursor: default; font-size: 0.8em; fill: rgb(51, 51, 51);" text-anchor="end" transform="translate(0,0)" y="231" opacity="1">UK</text><text x="103" style="color: rgb(51, 51, 51); cursor: default; font-size: 0.8em; fill: rgb(51, 51, 51);" text-anchor="end" transform="translate(0,0)" y="270" opacity="1">USA</text></g><g class="highcharts-axis-labels highcharts-yaxis-labels" data-z-index="7"><text x="118" style="color: rgb(51, 51, 51); cursor: default; font-size: 0.8em; fill: rgb(51, 51, 51);" text-anchor="middle" transform="translate(0,0)" y="314" opacity="1">0</text><text x="188" style="color: rgb(51, 51, 51); cursor: default; font-size: 0.8em; fill: rgb(51, 51, 51);" text-anchor="middle" transform="translate(0,0)" y="314" opacity="1">25</text><text x="258" style="color: rgb(51, 51, 51); cursor: default; font-size: 0.8em; fill: rgb(51, 51, 51);" text-anchor="middle" transform="translate(0,0)" y="314" opacity="1">50</text><text x="328" style="color: rgb(51, 51, 51); cursor: default; font-size: 0.8em; fill: rgb(51, 51, 51);" text-anchor="middle" transform="translate(0,0)" y="314" opacity="1">75</text><text x="398" style="color: rgb(51, 51, 51); cursor: default; font-size: 0.8em; fill: rgb(51, 51, 51);" text-anchor="middle" transform="translate(0,0)" y="314" opacity="1">100</text><text x="468" style="color: rgb(51, 51, 51); cursor: default; font-size: 0.8em; fill: rgb(51, 51, 51);" text-anchor="middle" transform="translate(0,0)" y="314" opacity="1">125</text><text x="527.3249998092651" style="color: rgb(51, 51, 51); cursor: default; font-size: 0.8em; fill: rgb(51, 51, 51);" text-anchor="middle" transform="translate(0,0)" y="314" opacity="1">150</text></g><text x="538" class="highcharts-credits" text-anchor="end" data-z-index="8" style="cursor: pointer; color: rgb(153, 153, 153); font-size: 0.6em; fill: rgb(153, 153, 153);" y="395">Highcharts.com</text><g class="highcharts-label highcharts-tooltip highcharts-color-1" style="cursor: default; pointer-events: none;" data-z-index="8" filter="url(#highcharts-drop-shadow-0)" transform="translate(53,192)" opacity="0" visibility="hidden"><path fill="#ffffff" class="highcharts-label-box highcharts-tooltip-box" d="M 3 0 L 128 0 A 3 3 0 0 1 131 3 L 131 43 A 3 3 0 0 1 128 46 L 72 46 L 66 52 L 60 46 L 3 46 A 3 3 0 0 1 0 43 L 0 3 A 3 3 0 0 1 3 0 Z" stroke-width="0" stroke="#544fc5"/><text x="8" data-z-index="1" y="18" style="color: rgb(51, 51, 51); font-size: 0.8em; fill: rgb(51, 51, 51);"><tspan style="font-size: 0.8em;">Pulip</tspan><tspan class="highcharts-br" dy="15" x="8">​</tspan><tspan style="color: rgb(84, 79, 197); fill: rgb(84, 79, 197);">●</tspan> Green Apple: <tspan style="font-weight: bold;">11.1</tspan><tspan class="highcharts-br">​</tspan></text></g></svg>