<svg version="1.1" class="highcharts-root" style="font-family: Helvetica, Arial, sans-serif; font-size: 1rem;" xmlns="http://www.w3.org/2000/svg" width="548" height="400" viewBox="0 0 548 400" role="img" aria-label="Apple Picking"><desc>Created with Highcharts 11.4.3</desc><defs><filter id="highcharts-drop-shadow-0"><feDropShadow dx="1" dy="1" flood-color="#000000" flood-opacity="0.75" stdDeviation="2.5"/></filter><clipPath id="highcharts-bcwo023-5-"><rect x="0" y="0" width="506" height="300" fill="none"/></clipPath><filter id="highcharts-drop-shadow-0-offsetx--1-offsety--1"><feDropShadow dx="-1" dy="-1" flood-color="#000000" flood-opacity="0.75" stdDeviation="2.5"/></filter></defs><rect fill="#ffffff" class="highcharts-background" filter="none" x="0" y="0" width="548" height="400" rx="0" ry="0"/><rect fill="none" class="highcharts-plot-background" x="32" y="10" width="506" height="300" filter="none"/><rect fill="none" class="highcharts-plot-border" data-z-index="1" stroke="#cccccc" stroke-width="0" x="32" y="10" width="506" height="300"/><g class="highcharts-grid highcharts-xaxis-grid" data-z-index="1"><path fill="none" stroke="#e6e6e6" stroke-width="0" stroke-dasharray="none" data-z-index="1" class="highcharts-grid-line" d="M 200.5 10 L 200.5 310" opacity="1"/><path fill="none" stroke="#e6e6e6" stroke-width="0" stroke-dasharray="none" data-z-index="1" class="highcharts-grid-line" d="M 369.5 10 L 369.5 310" opacity="1"/><path fill="none" stroke="#e6e6e6" stroke-width="0" stroke-dasharray="none" data-z-index="1" class="highcharts-grid-line" d="M 538.5 10 L 538.5 310" opacity="1"/><path fill="none" stroke="#e6e6e6" stroke-width="0" stroke-dasharray="none" data-z-index="1" class="highcharts-grid-line" d="M 32.5 10 L 32.5 310" opacity="1"/></g><g class="highcharts-grid highcharts-yaxis-grid" data-z-index="1"><path fill="none" stroke="#e6e6e6" stroke-width="1" stroke-dasharray="none" data-z-index="1" class="highcharts-grid-line" d="M 32 310.5 L 538 310.5" opacity="1"/><path fill="none" stroke="#e6e6e6" stroke-width="1" stroke-dasharray="none" data-z-index="1" class="highcharts-grid-line" d="M 32 235.5 L 538 235.5" opacity="1"/><path fill="none" stroke="#e6e6e6" stroke-width="1" stroke-dasharray="none" data-z-index="1" class="highcharts-grid-line" d="M 32 160.5 L 538 160.5" opacity="1"/><path fill="none" stroke="#e6e6e6" stroke-width="1" stroke-dasharray="none" data-z-index="1" class="highcharts-grid-line" d="M 32 85.5 L 538 85.5" opacity="1"/><path fill="none" stroke="#e6e6e6" stroke-width="1" stroke-dasharray="none" data-z-index="1" class="highcharts-grid-line" d="M 32 10.5 L 538 10.5" opacity="1"/></g><g class="highcharts-axis highcharts-xaxis" data-z-index="2"><path fill="none" class="highcharts-axis-line" stroke="#333333" stroke-width="1" data-z-index="7" d="M 32 310.5 L 538 310.5"/></g><g class="highcharts-axis highcharts-yaxis" data-z-index="2"><path fill="none" class="highcharts-axis-line" stroke="#333333" stroke-width="0" data-z-index="7" d="M 32 10 L 32 310"/></g><g class="highcharts-series-group" data-z-index="3" filter="none"><g class="highcharts-series highcharts-series-0 highcharts-column-series highcharts-color-0 highcharts-tracker" data-z-index="0.1" opacity="1" transform="translate(32,10) scale(1 1)" clip-path="url(#highcharts-bcwo023-5-)"><path fill="#2caffe" d="M 40.5 225.5 L 61.5 225.5 A 3 3 0 0 1 64.5 228.5 L 64.5 300.5 A 0 0 0 0 1 64.5 300.5 L 37.5 300.5 A 0 0 0 0 1 37.5 300.5 L 37.5 228.5 A 3 3 0 0 1 40.5 225.5 Z" stroke="#ffffff" stroke-width="1" opacity="1" filter="none" class="highcharts-point highcharts-color-0"/><path fill="#2caffe" d="M 208.5 150.5 L 229.5 150.5 A 3 3 0 0 1 232.5 153.5 L 232.5 300.5 A 0 0 0 0 1 232.5 300.5 L 205.5 300.5 A 0 0 0 0 1 205.5 300.5 L 205.5 153.5 A 3 3 0 0 1 208.5 150.5 Z" stroke="#ffffff" stroke-width="1" opacity="1" filter="none" class="highcharts-point highcharts-color-0"/><path fill="#2caffe" d="M 377.5 75.5 L 398.5 75.5 A 3 3 0 0 1 401.5 78.5 L 401.5 300.5 A 0 0 0 0 1 401.5 300.5 L 374.5 300.5 A 0 0 0 0 1 374.5 300.5 L 374.5 78.5 A 3 3 0 0 1 377.5 75.5 Z" stroke="#ffffff" stroke-width="1" opacity="1" filter="none" class="highcharts-point highcharts-color-0"/></g><g class="highcharts-markers highcharts-series-0 highcharts-column-series highcharts-color-0" data-z-index="0.1" opacity="1" transform="translate(32,10) scale(1 1)" clip-path="none"/><g class="highcharts-series highcharts-series-1 highcharts-column-series highcharts-color-2 highcharts-tracker" data-z-index="0.1" opacity="1" transform="translate(32,10) scale(1 1)" clip-path="url(#highcharts-bcwo023-5-)"><path fill="#00e272" d="M 73.5 150.5 L 94.5 150.5 A 3 3 0 0 1 97.5 153.5 L 97.5 300.5 A 0 0 0 0 1 97.5 300.5 L 70.5 300.5 A 0 0 0 0 1 70.5 300.5 L 70.5 153.5 A 3 3 0 0 1 73.5 150.5 Z" stroke="#ffffff" stroke-width="1" opacity="1" filter="none" class="highcharts-point highcharts-color-2"/><path fill="#00e272" d="M 242.5 75.5 L 263.5 75.5 A 3 3 0 0 1 266.5 78.5 L 266.5 300.5 A 0 0 0 0 1 266.5 300.5 L 239.5 300.5 A 0 0 0 0 1 239.5 300.5 L 239.5 78.5 A 3 3 0 0 1 242.5 75.5 Z" stroke="#ffffff" stroke-width="1" opacity="1" filter="none" class="highcharts-point highcharts-color-2"/><path fill="#00e272" d="M 411.5 225.5 L 432.5 225.5 A 3 3 0 0 1 435.5 228.5 L 435.5 300.5 A 0 0 0 0 1 435.5 300.5 L 408.5 300.5 A 0 0 0 0 1 408.5 300.5 L 408.5 228.5 A 3 3 0 0 1 411.5 225.5 Z" stroke="#ffffff" stroke-width="1" opacity="1" filter="none" class="highcharts-point highcharts-color-2"/></g><g class="highcharts-markers highcharts-series-1 highcharts-column-series highcharts-color-2" data-z-index="0.1" opacity="1" transform="translate(32,10) scale(1 1)" clip-path="none"/><g class="highcharts-series highcharts-series-2 highcharts-column-series highcharts-color-3 highcharts-tracker" data-z-index="0.1" opacity="1" transform="translate(32,10) scale(1 1)" clip-path="url(#highcharts-bcwo023-5-)"><path fill="rgb(254,106,53)" d="M 107.5 150.5 L 128.5 150.5 A 3 3 0 0 1 131.5 153.5 L 131.5 300.5 A 0 0 0 0 1 131.5 300.5 L 104.5 300.5 A 0 0 0 0 1 104.5 300.5 L 104.5 153.5 A 3 3 0 0 1 107.5 150.5 Z" stroke="#ffffff" stroke-width="1" opacity="1" filter="none" class="highcharts-point highcharts-color-3"/><path fill="rgb(254,106,53)" d="M 276.5 75.5 L 297.5 75.5 A 3 3 0 0 1 300.5 78.5 L 300.5 300.5 A 0 0 0 0 1 300.5 300.5 L 273.5 300.5 A 0 0 0 0 1 273.5 300.5 L 273.5 78.5 A 3 3 0 0 1 276.5 75.5 Z" stroke="#ffffff" stroke-width="1" opacity="1" filter="none" class="highcharts-point highcharts-color-3"/><path fill="#fe6a35" d="M 444.5 225.5 L 465.5 225.5 A 3 3 0 0 1 468.5 228.5 L 468.5 300.5 A 0 0 0 0 1 468.5 300.5 L 441.5 300.5 A 0 0 0 0 1 441.5 300.5 L 441.5 228.5 A 3 3 0 0 1 444.5 225.5 Z" stroke="#ffffff" stroke-width="1" opacity="1" filter="none" class="highcharts-point highcharts-color-3"/></g><g class="highcharts-markers highcharts-series-2 highcharts-column-series highcharts-color-3" data-z-index="0.1" opacity="1" transform="translate(32,10) scale(1 1)" clip-path="none"/></g><text x="274" text-anchor="middle" class="highcharts-subtitle" data-z-index="4" style="color: rgb(102, 102, 102); font-size: 0.8em; fill: rgb(102, 102, 102);" y="24"/><text x="10" text-anchor="start" class="highcharts-caption" data-z-index="4" style="color: rgb(102, 102, 102); font-size: 0.8em; fill: rgb(102, 102, 102);" y="397"/><text x="274" text-anchor="middle" class="highcharts-title" data-z-index="4" style="font-size: 1.2em; color: rgb(51, 51, 51); font-weight: bold; fill: rgb(51, 51, 51);" y="25"/><g class="highcharts-data-labels highcharts-series-0 highcharts-bar-series highcharts-color-0 highcharts-tracker" data-z-index="6" opacity="1" transform="translate(118,10) scale(1 1)"/><g class="highcharts-legend highcharts-no-tooltip" data-z-index="7" transform="translate(201,355)"><rect fill="none" class="highcharts-legend-box" rx="0" ry="0" stroke="#999999" stroke-width="0" filter="none" x="0" y="0" width="145" height="30"/><g data-z-index="1"><g><g class="highcharts-legend-item highcharts-column-series highcharts-color-0 highcharts-series-0" data-z-index="1" transform="translate(8,3)"><text x="21" y="17" style="color: rgb(51, 51, 51); cursor: pointer; font-size: 0.8em; text-decoration: none; fill: rgb(51, 51, 51);" text-anchor="start" data-z-index="2">A</text><rect x="2" y="6" rx="6" ry="6" width="12" height="12" fill="#2caffe" class="highcharts-point" data-z-index="3"/></g><g class="highcharts-legend-item highcharts-column-series highcharts-color-2 highcharts-series-1" data-z-index="1" transform="translate(57.53333377838135,3)"><text x="21" y="17" style="color: rgb(51, 51, 51); cursor: pointer; font-size: 0.8em; text-decoration: none; fill: rgb(51, 51, 51);" text-anchor="start" data-z-index="2">B</text><rect x="2" y="6" rx="6" ry="6" width="12" height="12" fill="#00e272" class="highcharts-point" data-z-index="3"/></g><g class="highcharts-legend-item highcharts-column-series highcharts-color-3 highcharts-series-2" data-z-index="1" transform="translate(107.0666675567627,3)"><text x="21" y="17" style="color: rgb(51, 51, 51); cursor: pointer; font-size: 0.8em; text-decoration: none; fill: rgb(51, 51, 51);" text-anchor="start" data-z-index="2">C</text><rect x="2" y="6" rx="6" ry="6" width="12" height="12" fill="#fe6a35" class="highcharts-point" data-z-index="3"/></g></g></g></g><g class="highcharts-axis-labels highcharts-xaxis-labels" data-z-index="7"><text x="116.33333333333668" style="color: rgb(51, 51, 51); cursor: default; font-size: 0.8em; fill: rgb(51, 51, 51);" text-anchor="middle" transform="translate(0,0)" y="337" opacity="1">2019-03-02 00:00:00</text><text x="284.9999999999967" style="color: rgb(51, 51, 51); cursor: default; font-size: 0.8em; fill: rgb(51, 51, 51);" text-anchor="middle" transform="translate(0,0)" y="337" opacity="1">2019-04-01 00:00:00</text><text x="453.6666666666667" style="color: rgb(51, 51, 51); cursor: default; font-size: 0.8em; fill: rgb(51, 51, 51);" text-anchor="middle" transform="translate(0,0)" y="337" opacity="1">2019-05-01 00:00:00</text></g><g class="highcharts-axis-labels highcharts-yaxis-labels" data-z-index="7"><text x="17" style="color: rgb(51, 51, 51); cursor: default; font-size: 0.8em; fill: rgb(51, 51, 51);" text-anchor="end" transform="translate(0,0)" y="313" opacity="1">0</text><text x="17" style="color: rgb(51, 51, 51); cursor: default; font-size: 0.8em; fill: rgb(51, 51, 51);" text-anchor="end" transform="translate(0,0)" y="238" opacity="1">1</text><text x="17" style="color: rgb(51, 51, 51); cursor: default; font-size: 0.8em; fill: rgb(51, 51, 51);" text-anchor="end" transform="translate(0,0)" y="163" opacity="1">2</text><text x="17" style="color: rgb(51, 51, 51); cursor: default; font-size: 0.8em; fill: rgb(51, 51, 51);" text-anchor="end" transform="translate(0,0)" y="88" opacity="1">3</text><text x="17" style="color: rgb(51, 51, 51); cursor: default; font-size: 0.8em; fill: rgb(51, 51, 51);" text-anchor="end" transform="translate(0,0)" y="13" opacity="1">4</text></g><text x="538" class="highcharts-credits" text-anchor="end" data-z-index="8" style="cursor: pointer; color: rgb(153, 153, 153); font-size: 0.6em; fill: rgb(153, 153, 153);" y="395">Highcharts.com</text><g class="highcharts-label highcharts-tooltip highcharts-color-3" style="cursor: default; pointer-events: none;" data-z-index="8" filter="url(#highcharts-drop-shadow-0)" transform="translate(95,108)" opacity="0" visibility="hidden"><path fill="#ffffff" class="highcharts-label-box highcharts-tooltip-box" d="M 3 0 L 108 0 A 3 3 0 0 1 111 3 L 111 43 A 3 3 0 0 1 108 46 L 61 46 L 55 52 L 49 46 L 3 46 A 3 3 0 0 1 0 43 L 0 3 A 3 3 0 0 1 3 0 Z" stroke-width="0" stroke="#fe6a35"/><text x="8" data-z-index="1" y="18" style="color: rgb(51, 51, 51); font-size: 0.8em; fill: rgb(51, 51, 51);"><tspan style="font-size: 0.8em;">2019-03-02 00:00:00</tspan><tspan class="highcharts-br" dy="15" x="8">​</tspan><tspan style="color: rgb(254, 106, 53); fill: rgb(254, 106, 53);">●</tspan> C: <tspan style="font-weight: bold;">2</tspan><tspan class="highcharts-br">​</tspan></text></g></svg>