<svg xmlns="http://www.w3.org/2000/svg"
   width="100%" height="100%" viewBox="0 0 1600 1200">
   <title id="diagram-title">Map of the Netherlands</title>

   <metadata data-type="text/jim+json">
     {
       "datasets": [
         {
           "title": "Map of the Netherlands",
           "description": "Map of Netherlands and its major cities, with surrounding countries",
           "source": {
             "url": "https://inclusioproject.com/graphics/exemplars/E007-Map_of_Netherlands.svg",
             "name": "Inclusio Project accessible graphic examplar: E007 Map of the Netherlands"
           },
           "items": {
             "countries": {
                "netherlands": {
                  "label": "The Netherlands"
                },
                "united_kingdom": {
                  "label": "United Kingdom"
                },
                "france": {
                  "label": "France"
                },
                "belgium": {
                  "label": "Belgium"
                },
                "germany": {
                  "label": "Germany"
                },
                "luxembourg": {
                  "label": "Luxembourg"
                }
             },
             "cities": {
               "amsterdam": {
                 "label": "Amsterdam"            
               },
               "hague": {
                 "label": "The Hague"
               },
               "rotterdam": {
                 "label": "Rotterdam"
               },
               "enschede": {
                 "label": "Enschede"
               },
               "heerenveen": {
                 "label": "Heerenveen"
               }
             },
             "compass_rose": {
               "north": {
                 "label": "North"            
               },
               "east": {
                 "label": "East"
               },
               "south": {
                 "label": "South"
               },
               "west": {
                 "label": "West"
               }
             }
           }
         }
       ],
       "selectors": {
         "#diagram-title": "$.datasets[0].title",
 
         "#netherlands-group": "$.datasets[0].items.countries.netherlands.label",
         "#united-kingdom-group": "$.datasets[0].items.countries.united_kingdom.label",
         "#france-group": "$.datasets[0].items.countries.france.label",
         "#belgium-group": "$.datasets[0].items.countries.belgium.label",
         "#germany-group": "$.datasets[0].items.countries.germany.label",
         "#luxembourg-group": "$.datasets[0].items.countries.luxembourg.label",
         
         "#Amsterdam-group": "$.datasets[0].items.cities.amsterdam.label",
         "#Hague-group": "$.datasets[0].items.cities.hague.label",
         "#Rotterdam-group": "$.datasets[0].items.cities.rotterdam.label",
         "#Enschede-group": "$.datasets[0].items.cities.enschede.label",
         "#Heerenveen-group": "$.datasets[0].items.cities.heerenveen.label",
         
         "#north": "$.datasets[0].items.compass_rose.north.label",
         "#east": "$.datasets[0].items.compass_rose.east.label",
         "#south": "$.datasets[0].items.compass_rose.south.label",
         "#west": "$.datasets[0].items.compass_rose.west.label"
       },
       "behaviors": {
        
       }
     }
   </metadata>

   <style>
    .background,
    .frame {
      fill: none;
      stroke: black;
    }

    text {
      font-family: Helvetica, sans-serif;
      font-size: 22px;
      fill: black;
    }

    text.left {
      text-anchor: end;
    }

    text.mid {
      text-anchor: middle;
    }

    #title-label {
      font-size: 32px;
    }
    
    .city {
      fill: black;
    }
    
    .title_bg {
      fill: white;
      stroke: black;
      stroke-width: 1px;
    }
    
    .country_name,
    .geographic_name {
      font-size: 28px;
      text-anchor: middle;
    }

    .border {
      fill: none;
      stroke: #1f1a17;
      stroke-width: 1.02px;
      stroke-linecap: round;
      stroke-linejoin: round
    }

    #netherlands-group {
      fill: #9eee57;
    }

    #germany-group {
      fill: #9ecae1;
      fill: #6baed6;
      fill: #fed98e;
      fill: #cc4c02;
      fill: #ff6b15;
      fill: #fdcaac;
    }

    #Belgium {
      fill: #fe9929;
      fill: #ffb15a;
    }

    #France {
      fill: #badeca;
    }

    #Luxembourg {
      fill: #33a02c;
    }

    #United-Kingdom {
      fill: #cc4c02;
      fill: #fed98e;
    }

    #North-Sea {
      fill: hsl(210, 94%, 95%);
    }

    .compass-arrow {
      marker-end: url(#arrow-end);
      fill: none;
      stroke: black;
      stroke-width: 3px;
    }

    #arrow-end {
      fill: black;
      stroke: none;
    }

    .hidden {
      stroke: none;
      fill: none;
    }
  </style>
  
  <defs>
    <marker id="arrow-end" viewBox="-13 -6 37.5 30" markerUnits="strokeWidth"
        refX="-4" refY="0" markerWidth="15" markerHeight="30" orient="auto"
        class="process">
      <path d="M-10,-5 L0,0 -10,5 Z"/>
    </marker>
  </defs>

  <rect class="background" width="100%" height="100%" />
  
  
  <g id="north-sea-group" aria-labelledby="north-sea-label">
    <rect id="North-Sea" width="100%" height="100%" />
    <text id="north-sea-label" class="geographic_name" x="650" y="200">North Sea</text>
  </g>
  
  <g id="title">
    <rect id="title-background" class="title_bg" width="365" height="50" />
    <text id="title-label" x="15" y="35">Map of the Netherlands</text>
  </g>


  <g id="compass_rose" transform="translate(338, 225)">
    <path d="M0,0 L88,88 L0,176 L-88,88 Z" fill="white" stroke="black" stroke-width="1"/>
    <g id="north">
      <path id="north-arrow" class="compass-arrow" d="M0,88 V45"/>
      <text x="0" y="30" class="mid">N</text>
    </g>
    <g id="east">
      <path id="east-arrow" class="compass-arrow" d="M0,88 H45"/>
      <text x="63" y="95" class="mid">E</text>
    </g>
    <g id="south">
      <path id="south-arrow" class="compass-arrow" d="M0,88 V131"/>
      <text x="0" y="160" class="mid">S</text>
    </g>
    <g id="west">
      <path id="west-arrow" class="compass-arrow" d="M0,88 H-45"/>
      <text x="-63" y="95" class="mid">W</text>
    </g>
  </g>


  <g id="netherlands-group" aria-labelledby="netherlands-label">
    <path id="Netherlands" d="M 723.28,387.92 730.41,400.92 731.65,403.28 732.79,419.86 V 424.57 L 731.65,434.1 V 435.22 L 730.41,436.45 H 728.03 L 724.42,439.93 723.28,442.29 V 444.74 L 724.42,447.1 729.27,450.58 732.79,451.81 756.65,457.75 762.65,477.81 V 482.52 L 763.89,505.05 V 506.17 L 773.39,518.05 774.63,519.18 H 806.87 L 811.62,546.41 V 547.64 L 806.87,559.41 802.01,566.58 800.87,568.93 794.88,574.77 792.5,576 788.89,578.35 783,580.71 768.64,589 760.27,598.52 759.13,600.88 757.89,605.59 756.65,609.17 751.9,613.88 735.16,618.59 H 732.79 L 717.29,611.52 714.91,609.17 713.67,605.59 711.3,604.36 H 710.16 L 704.17,600.88 683.92,596.06 667.18,591.35 662.43,590.23 656.43,586.65 658.81,583.06 H 663.56 L 664.8,584.29 H 665.94 L 675.55,572.41 676.69,567.7 677.93,548.76 676.69,547.64 V 544.05 L 673.17,534.63 670.69,533.41 669.56,532.28 V 531.05 L 668.32,528.7 665.94,516.82 V 514.47 L 667.18,512.11 669.56,510.98 670.69,509.76 H 679.06 L 685.05,515.69 H 686.29 L 689.81,513.34 694.66,512.11 695.8,510.98 700.55,507.4 712.54,493.17 713.67,492.04 711.3,486.11 V 483.75 L 710.16,481.4 708.92,480.17 699.42,479.04 695.8,477.81 691.05,482.52 687.43,481.4 686.29,480.17 683.92,477.81 V 475.46 L 681.54,469.52 671.93,435.22 673.17,425.8 667.18,428.16 654.06,436.45 651.68,437.58 650.44,438.81 645.69,439.93 H 639.7 L 638.56,438.81 633.71,436.45 632.57,435.22 630.19,434.1 628.95,431.64 V 426.93 L 614.69,436.45 603.95,474.23 602.71,480.17 599.09,499.11 600.33,507.4 591.96,557.06 582.46,579.58 568.1,612.65 563.35,622.17 562.11,625.65 559.73,628.01 558.59,630.36 552.6,639.88 516.75,684.83 508.38,690.77 492.88,689.54 502.39,731 496.5,734.48 494.12,732.13 489.27,729.78 488.13,728.55 H 485.75 L 467.78,734.48 465.4,736.84 V 741.65 L 466.64,745.13 H 469.02 L 481,741.65 484.51,740.42 486.89,741.65 491.75,744.01 494.12,745.13 497.64,752.3 V 753.43 L 498.88,755.78 510.76,767.66 516.75,773.49 515.61,774.72 509.62,775.95 507.24,777.08 506,780.66 500.01,775.95 489.27,766.43 483.38,760.49 481,759.36 467.78,757.01 H 455.89 L 451.14,755.78 H 449.9 L 442.77,758.13 439.16,759.36 438.02,760.49 H 436.78 L 434.4,762.95 V 766.43 L 433.16,770.01 V 771.14 L 434.4,772.37 V 773.49 L 436.78,775.95 H 439.16 L 441.53,777.08 446.39,775.95 H 447.53 L 453.52,770.01 H 457.13 L 466.64,777.08 467.78,778.3 469.02,783.01 470.26,784.14 V 787.72 H 471.39 L 482.14,793.66 H 484.51 L 489.27,792.43 H 491.75 L 501.25,788.95 507.24,786.6 498.88,794.79 492.88,797.24 486.89,799.6 485.75,800.73 V 801.95 L 486.89,803.08 502.39,816.08 510.76,817.31 H 514.37 L 526.36,819.67 533.49,822.02 V 823.25 L 537.1,827.96 538.24,830.31 V 837.38 L 537.1,839.73 535.86,840.96 531.11,842.19 528.73,843.32 H 514.37 L 509.62,842.19 507.24,840.96 503.63,838.61 500.01,831.54 498.88,826.73 497.64,823.25 465.4,796.02 459.51,794.79 415.29,796.02 410.54,798.37 402.17,803.08 398.55,805.44 393.8,807.89 392.66,810.25 390.29,812.6 V 814.96 L 391.42,817.31 405.79,835.02 408.16,836.25 412.91,838.61 416.53,839.73 442.77,848.03 455.89,855.19 H 457.13 L 469.02,853.96 473.77,844.55 475.01,843.32 V 842.19 L 473.77,840.96 475.01,839.73 V 838.61 L 477.38,837.38 H 479.76 L 483.38,836.25 514.37,852.84 529.87,862.26 546.61,859.9 556.11,848.03 V 838.61 L 571.71,830.31 581.22,829.09 582.46,830.31 H 583.6 V 832.67 L 582.46,837.38 581.22,838.61 579.98,840.96 V 842.19 L 581.22,844.55 V 845.67 H 582.46 L 599.09,846.9 603.95,845.67 605.09,844.55 603.95,843.32 V 840.96 L 609.84,833.9 614.69,830.31 621.82,824.38 H 625.34 L 626.58,825.6 631.33,827.96 634.94,831.54 V 836.25 L 632.57,845.67 636.18,849.25 649.31,853.96 H 650.44 L 654.06,850.38 660.05,845.67 661.19,843.32 663.56,840.96 V 838.61 L 664.8,833.9 V 832.67 L 665.94,831.54 667.18,829.09 H 668.32 L 675.55,833.9 V 835.02 L 677.93,838.61 V 840.96 L 680.3,843.32 679.06,845.67 675.55,851.61 V 852.84 L 674.31,853.96 675.55,855.19 V 857.55 L 686.29,875.26 701.79,890.62 702.93,891.85 H 714.91 L 732.79,890.62 743.53,885.91 760.27,901.26 V 902.49 L 777.01,910.79 779.38,913.14 H 780.52 L 786.51,911.91 790.13,910.79 H 793.74 L 808,917.85 809.24,919.08 811.62,920.21 V 922.56 L 805.63,928.5 V 929.73 L 798.5,955.73 796.12,966.38 V 977.03 L 790.13,986.45 V 987.68 L 783,995.97 785.38,1017.26 784.14,1030.27 H 806.87 L 821.12,1031.39 836.62,1030.27 H 840.24 V 1006.62 L 844.99,1004.16 H 850.98 L 853.36,998.32 V 997.09 L 852.22,986.45 V 985.32 L 842.61,969.86 V 968.73 H 840.24 L 829.49,967.51 H 825.88 L 819.99,971.09 H 818.75 L 815.13,958.09 813.99,951.02 V 949.79 L 819.99,946.21 821.12,945.08 V 946.21 H 822.36 L 833.11,945.08 848.61,929.73 853.36,916.62 852.22,915.5 850.98,913.14 849.85,904.85 V 896.56 L 850.98,895.33 861.73,881.2 874.85,862.26 V 832.67 L 871.23,822.02 V 819.67 L 867.72,816.08 865.34,812.6 856.98,803.08 852.22,796.02 840.24,775.95 V 766.43 L 841.48,764.07 833.11,758.13 828.36,739.19 836.62,733.36 844.99,725.07 862.97,731 856.98,717.9 865.34,715.54 897.58,728.55 903.47,733.36 V 725.07 L 936.94,713.19 951.3,708.48 H 953.68 L 954.82,710.83 958.43,712.06 H 959.67 L 969.18,704.9 970.32,703.77 977.55,694.25 V 690.77 L 976.31,687.18 970.32,681.25 959.67,675.41 957.19,674.18 H 952.44 V 665.89 H 953.68 L 964.43,652.89 967.94,651.66 H 978.68 L 979.92,650.53 H 981.06 L 982.3,649.3 997.8,632.82 999.04,630.36 1009.78,607.94 1015.67,585.42 V 581.94 L 1014.54,576 1013.3,573.64 1001.41,555.93 H 1000.17 L 997.8,559.41 996.66,560.64 995.42,562.99 H 994.28 L 962.05,557.06 960.81,555.93 952.44,549.99 951.3,548.76 948.82,533.41 953.68,510.98 958.43,506.17 959.67,505.05 960.81,503.82 964.43,502.69 H 983.54 L 984.68,503.82 987.05,505.05 1006.17,508.53 H 1007.41 L 1009.78,506.17 V 505.05 L 1010.92,502.69 V 499.11 L 1012.16,483.75 V 475.46 L 1010.92,466.04 1012.16,462.46 V 457.75 L 1015.67,447.1 V 444.74 L 1018.05,442.29 1020.53,439.93 1021.66,437.58 1028.79,426.93 1030.03,424.57 1032.41,416.28 1033.65,405.63 V 354.75 L 1032.41,337.04 1031.27,339.39 H 1028.79 L 1021.66,338.27 1013.3,335.91 H 1012.16 L 1009.78,334.68 987.05,318.1 979.92,311.03 977.55,302.74 973.93,288.51 971.55,286.15 958.43,281.44 952.44,279.09 H 948.82 L 944.07,280.32 904.71,290.97 878.47,298.03 H 877.23 L 871.23,294.45 H 868.86 L 846.23,296.8 836.62,298.03 825.88,300.38 816.37,302.74 813.99,303.97 796.12,313.39 791.26,315.74 775.77,321.68 766.26,326.39 761.51,327.62 757.89,331.1 741.16,346.56 738.78,348.91 736.4,352.4 734.03,354.75 731.65,363.04 V 366.63 L 730.41,372.56 729.27,377.27 726.9,384.34 724.42,386.69 Z"  />


    <path id="Zeeland" d="M 378.3,884.68 V 885.91 L 379.54,887.14 387.81,892.97 V 894.2 H 396.18 L 402.17,892.97 403.41,891.85 V 888.26 L 402.17,883.55 403.41,882.32 V 881.2 L 416.53,877.61 428.41,881.2 448.77,889.49 H 449.9 L 451.14,890.62 449.9,896.56 V 901.26 H 451.14 L 452.28,902.49 466.64,905.97 H 470.26 L 478.52,903.62 497.64,892.97 508.38,885.91 514.37,882.32 516.75,879.97 526.36,869.32 528.73,866.97 525.12,861.03 523.88,859.9 H 520.37 L 479.76,861.03 463.02,868.2 445.15,866.97 441.53,865.84 H 440.4 L 438.02,863.49 408.16,848.03 H 403.41 L 377.06,856.32 V 876.49 Z" />

    <path id="Flevoland" d="M 695.8,573.64 693.42,574.77 685.05,583.06 686.29,591.35 687.43,593.71 688.67,594.94 H 691.05 L 694.66,593.71 H 698.18 L 701.79,594.94 707.78,597.29 713.67,599.65 718.53,602 723.28,605.59 729.27,612.65 730.41,613.88 H 736.4 L 750.76,610.3 753.14,609.17 754.28,606.71 757.89,598.52 V 597.29 L 755.52,592.58 V 590.23 L 759.13,585.42 H 760.27 L 780.52,574.77 784.14,572.41 790.13,573.64 794.88,570.06 797.26,568.93 803.25,559.41 805.63,553.47 806.87,551.12 808,542.83 V 539.34 L 806.87,536.99 804.49,532.28 V 531.05 L 802.01,528.7 771.01,521.63 759.13,525.11 742.4,535.76 740.02,541.7 738.78,542.83 708.92,565.35 Z" />

    <path id="Ameland-island" d="M 769.77,292.09 772.15,293.32 H 775.77 L 796.12,289.74 806.87,286.15 819.99,283.8 821.12,282.67 V 281.44 L 819.99,280.32 H 812.76 L 796.12,282.67 H 778.14 L 774.63,281.44 H 773.39 V 280.32 H 772.15 L 771.01,281.44 767.4,287.38 V 288.51 L 768.64,290.97 Z" />

    <path id="Texel-island" d="M 640.94,359.56 H 638.56 L 637.32,360.69 618.21,387.92 615.83,391.5 613.45,394.99 612.32,397.34 V 405.63 L 613.45,410.45 614.69,411.57 617.07,413.93 620.58,415.16 621.82,413.93 628.95,409.22 637.32,400.92 640.94,396.21 646.83,386.69 V 372.56 L 642.07,360.69 Z" />

    <path id="Vlieland-island" d="M 676.69,325.26 H 674.31 L 670.69,326.39 662.43,331.1 655.2,337.04 646.83,344.1 643.31,347.69 642.07,350.04 640.94,352.4 H 642.07 L 643.31,353.62 650.44,352.4 V 351.27 L 654.06,346.56 661.19,335.91 663.56,334.68 674.31,328.74 H 679.06 V 326.39 H 677.93 Z" />

    <path id="Terschelling-island" d="M 698.18,302.74 689.81,306.32 V 312.26 L 691.05,313.39 692.18,314.62 H 697.04 L 720.91,306.32 756.65,290.97 757.89,289.74 V 288.51 L 759.13,287.38 757.89,286.15 H 754.28 L 699.42,301.61 Z" />

    <path id="Schiermonnikoog-island" d="M 852.22,283.8 873.71,275.51 883.22,272.03 H 884.46 V 269.67 L 883.22,268.44 H 878.47 L 854.6,272.03 852.22,273.15 850.98,274.38 847.37,279.09 849.85,283.8 Z" />

    <text id="netherlands-label" class="country_name" x="785" y="680">Netherlands</text>

    <g id="cities">
      <g id="Amsterdam-group" class="city" transform="translate(635, 592)">
        <path id="Amsterdam" d="M 1.56,-12.83 C 2.32,-11.35 3.32,-9.33 3.80,-8.38 4.41,-7.15 4.74,-6.61 4.93,-6.54 5.07,-6.49 6.25,-6.31 7.55,-6.14 8.84,-5.96 11.06,-5.67 12.47,-5.48 13.89,-5.29 15.06,-5.12 15.09,-5.09 15.12,-5.07 13.47,-3.37 11.44,-1.33 L 7.74,2.36 8.02,3.83 C 8.75,7.71 9.61,12.58 9.57,12.63 9.54,12.65 7.83,11.81 5.77,10.73 3.69,9.67 1.61,8.60 1.13,8.37 L 0.23,7.93 -3.28,9.84 C -5.23,10.89 -7.29,12.01 -7.87,12.32 -8.44,12.64 -8.94,12.89 -8.95,12.87 -8.97,12.84 -8.94,12.51 -8.88,12.12 -8.81,11.75 -8.44,9.41 -8.06,6.95 L -7.34,2.47 -7.96,1.90 C -8.30,1.57 -9.65,0.29 -10.94,-0.93 -13.09,-2.97 -14.75,-4.53 -14.89,-4.62 -15.03,-4.72 -14.56,-4.86 -13.68,-4.99 -10.68,-5.43 -4.60,-6.41 -4.57,-6.45 -4.54,-6.47 -4.07,-7.44 -3.51,-8.60 -2.95,-9.76 -2.18,-11.37 -1.79,-12.19 -1.40,-13.00 -0.84,-14.17 -0.55,-14.78 -0.15,-15.63 -7.96e-4,-15.85 0.08,-15.72 0.14,-15.63 0.81,-14.33 1.56,-12.83 Z" />
        <text class="mid" x="0" y="36">Amsterdam</text>
      </g>
      <g id="Rotterdam-group" class="city" transform="translate(598, 746)">
        <circle id="Rotterdam" r="8" />
        <text x="15" y="6">Rotterdam</text>
      </g>
      <g id="Enschede-group" class="city" transform="translate(974, 600)">
        <circle id="Enschede" r="8" />
        <text class="left" x="-15" y="6">Enschede</text>
      </g>
      <g id="Hague-group" class="city" transform="translate(554, 686)">
        <circle id="Hague" r="8" />
        <text x="15" y="6">The Hague</text>
      </g>
      <g id="Heerenveen-group" class="city" transform="translate(833, 455)">
        <circle id="Heerenveen" r="8" />
        <text x="15" y="6">Heerenveen</text>
      </g>
    </g>
  </g>

  <g id="united-kingdom-group" aria-labelledby="united-kingdom-label">
    <path id="United-Kingdom" d="M 0.78,314.21 0.47,875.46 H 5.22 L 12.45,879.05 33.84,877.82 32.7,874.34 V 868.4 L 33.84,864.82 35.08,860.11 39.83,853.04 44.59,848.23 51.82,843.52 56.57,841.17 57.81,840.04 H 61.32 L 66.08,841.17 69.69,840.04 H 73.31 L 101.93,828.16 H 103.17 L 105.54,824.58 110.3,821.1 111.54,817.52 113.91,813.93 V 803.29 L 119.8,771.34 121.04,770.22 V 768.99 L 123.42,761.92 V 760.69 L 124.66,758.34 V 757.21 L 123.42,754.86 H 122.18 L 115.05,753.63 106.68,754.86 75.68,757.21 54.19,759.57 H 51.82 L 48.2,763.15 H 45.83 L 43.45,764.28 H 31.46 L 24.34,763.15 12.45,759.57 9.97,758.34 8.84,755.98 H 9.97 L 17.21,757.21 20.72,758.34 24.34,759.57 26.71,760.69 35.08,757.21 36.32,755.98 V 754.86 L 35.08,752.5 33.84,748.92 27.95,742.98 8.84,735.92 4.5,734.69 4.6,713.19 6.46,713.39 H 11.21 L 13.59,712.27 24.34,705.1 27.95,701.62 32.7,698.04 39.83,692.1 41.07,689.74 43.45,668.45 V 659.03 L 42.21,657.8 41.07,655.45 39.83,654.32 37.46,653.09 35.08,654.32 27.95,656.67 21.96,659.03 20.72,660.16 9.97,661.38 4.81,658.31 5.01,654.63 7.6,655.45 23.1,653.09 25.58,651.96 29.09,648.38 30.33,647.15 V 643.67 L 39.83,637.73 H 42.21 L 51.82,636.51 56.57,641.32 V 646.03 L 57.81,647.15 60.19,648.38 68.56,647.15 H 73.31 L 80.44,644.8 84.05,642.44 87.57,641.32 93.56,635.38 100.79,627.09 103.17,623.5 V 622.38 L 104.3,621.15 101.93,620.02 V 618.79 H 99.55 V 621.15 L 98.31,622.38 V 623.5 L 95.93,624.73 H 94.8 L 87.57,621.15 V 620.02 L 100.79,593.91 104.3,596.37 110.3,605.79 118.66,597.5 122.18,592.79 125.79,588.08 128.17,585.72 134.16,578.56 138.92,573.85 147.28,570.26 152.04,569.14 153.28,567.91 H 155.65 L 156.79,565.55 158.03,558.49 161.65,544.26 165.16,527.67 V 525.32 L 166.4,519.38 167.53,514.67 168.77,511.19 171.15,507.61 177.14,496.96 184.27,483.96 185.51,481.6 192.64,457.95 190.26,417.71 189.02,413.01 184.27,391.71 183.14,388.13 179.52,382.19 177.14,377.48 174.77,376.35 140.15,345.54 135.4,341.95 130.55,337.24 127.03,334.89 116.29,330.18 98.31,325.47 67.32,320.66 Z"/>
    <text id="united-kingdom-label" class="country_name" x="85" y="480">United<tspan x="85" dy="2rem">Kingdom</tspan></text>
  </g>
  
  <g id="france-group" aria-labelledby="france-label">
    <path id="France" d="M 521.91,1201.14 22.68,1201.04 22.58,1198.17 24.96,1195.82 45.31,1166.23 V 1154.46 L 50.06,1110.64 53.57,1078.69 52.44,1037.33 53.57,1032.62 60.81,1004.16 65.56,985.32 87.05,966.38 91.8,964.03 96.55,962.8 118.04,955.73 121.66,954.5 175.39,945.08 196.88,941.5 201.63,942.73 206.38,941.5 208.76,940.37 226.74,933.21 229.11,932.08 230.25,933.21 243.37,966.38 V 969.86 L 244.61,971.09 238.62,981.74 239.86,994.74 243.37,1006.62 V 1007.74 L 245.85,1008.97 257.73,1013.68 280.46,1034.98 289.97,1042.04 V 1043.27 L 297.09,1029.04 299.47,1026.68 316.21,1020.74 328.19,1017.26 334.19,1018.39 H 335.32 L 336.56,1019.62 350.82,1039.69 352.06,1042.04 353.2,1047.98 V 1049.21 L 350.82,1050.33 V 1051.56 L 349.68,1052.69 V 1053.92 L 355.68,1088.21 359.19,1092.92 371.17,1099.99 372.31,1101.22 386.67,1097.63 V 1096.51 L 389.05,1094.15 397.42,1095.28 412.91,1101.22 H 414.15 L 415.29,1102.34 H 416.53 L 423.66,1111.86 424.9,1116.57 V 1118.93 L 426.04,1128.45 438.02,1142.58 463.02,1144.93 477.38,1143.81 489.27,1141.45 H 490.51 L 512,1161.52 517.99,1174.52 Z"/>
    <text id="france-label" class="country_name" x="200" y="1120">France</text>
  </g>

  <g id="belgium-group" aria-labelledby="belgium-label">
    <path id="Belgium" d="M 522.04,1202.69 828.07,1201.47 836.23,1191.84 843.36,1189.38 845.74,1188.26 862.48,1197.68 864.85,1203.62 867.23,1201.26 875.6,1187.03 873.22,1179.97 V 1178.74 L 870.85,1177.61 871.98,1174.03 877.97,1169.32 891.1,1159.8 903.08,1151.61 906.7,1138.6 V 1113.72 L 901.84,1104.31 899.46,1103.08 897.09,1100.72 H 895.95 L 888.72,1099.49 883.97,1100.72 881.59,1101.85 877.97,1079.43 874.46,1064.07 858.86,1039.19 H 849.36 L 840.99,1029.77 H 837.37 L 821.87,1030.9 807.62,1029.77 H 784.89 L 786.13,1016.77 783.75,995.47 790.88,987.18 V 985.95 L 796.87,976.53 V 965.88 L 799.25,955.24 806.38,929.23 V 928 L 812.37,922.07 V 919.71 L 809.99,918.58 808.75,917.36 794.49,910.29 H 790.88 L 787.26,911.42 781.27,912.65 H 780.13 L 777.76,910.29 761.02,902 V 900.77 L 744.28,885.41 733.54,890.12 715.66,891.35 H 703.68 L 702.54,890.12 687.04,874.76 676.3,857.05 V 854.7 L 675.06,853.47 676.3,852.34 V 851.11 L 679.81,845.18 681.05,842.82 678.67,840.47 V 838.11 L 676.3,834.53 V 833.4 L 669.07,828.59 H 667.93 L 666.69,831.05 665.55,832.17 V 833.4 L 664.31,838.11 V 840.47 L 661.94,842.82 660.8,845.18 654.81,849.89 651.19,853.47 H 650.06 L 636.93,848.76 633.32,845.18 635.69,835.76 V 831.05 L 632.08,827.46 627.33,825.11 626.09,823.88 H 622.57 L 615.44,829.82 610.59,833.4 604.7,840.47 V 842.82 L 605.84,844.05 604.7,845.18 599.84,846.41 583.21,845.18 H 581.97 V 844.05 L 580.73,841.7 V 840.47 L 581.97,838.11 583.21,836.88 584.35,832.17 V 829.82 H 583.21 L 581.97,828.59 572.46,829.82 556.86,838.11 V 847.53 L 547.36,859.41 530.62,861.76 531.65,862.79 541.36,880.7 540.23,887.77 533,870.06 529.48,866.47 527.11,868.83 517.5,879.47 515.12,881.83 509.13,885.41 498.38,892.48 479.27,903.12 471.01,905.48 H 467.39 L 453.03,902 451.89,900.77 H 450.65 V 896.06 L 451.89,890.12 450.65,889 H 449.52 L 429.16,880.7 417.28,877.12 404.16,880.7 V 881.83 L 402.92,883.06 404.16,887.77 V 891.35 L 402.92,892.48 396.93,893.71 H 388.56 V 892.48 L 380.29,886.64 379.05,885.41 V 884.18 L 377.81,875.99 V 855.82 L 345.68,866.47 336.07,870.06 332.46,871.18 328.94,873.64 319.33,880.7 300.22,892.48 290.72,898.42 233.37,930.36 232.24,931.59 H 229.86 L 231,932.71 244.12,965.88 V 969.37 L 245.36,970.59 239.37,981.24 240.61,994.24 244.12,1006.12 V 1007.25 L 246.6,1008.48 258.48,1013.19 281.21,1034.48 290.72,1041.55 V 1042.77 L 297.84,1028.54 300.22,1026.19 316.96,1020.25 328.94,1016.77 334.94,1017.89 H 336.07 L 337.31,1019.12 351.57,1039.19 352.81,1041.55 353.95,1047.48 V 1048.71 L 351.57,1049.84 V 1051.07 L 350.43,1052.19 V 1053.42 L 356.43,1087.72 359.94,1092.43 371.92,1099.49 373.06,1100.72 387.42,1097.14 V 1096.01 L 389.8,1093.66 398.17,1094.78 413.66,1100.72 H 414.9 L 416.04,1101.85 H 417.28 L 424.41,1111.37 425.65,1116.08 V 1118.43 L 426.79,1127.96 438.77,1142.08 463.77,1144.44 478.13,1143.31 490.02,1140.96 H 491.26 L 512.75,1161.03 518.74,1174.03 522.04,1200.03 Z"/>
    <text id="belgium-label" class="country_name" x="600" y="1050">Belgium</text>
  </g>

  <g id="germany-group" aria-labelledby="germany-label">
    <path id="Germany" d="M867.41,1200.83L1599.63,1201.04L1600.22,14.81L1593.12,14.43L1591.98,13.2L1590.74,13.2L1585.99,8.49L1583.61,3.78L1582.37,2.56L1577.62,0.2L1298.35,1.43L1295.97,3.78L1292.36,6.14L1288.74,6.14L1287.6,3.78L1286.36,3.78L1276.86,4.91L1257.75,9.72L1256.51,9.72L1255.37,10.85L1254.13,15.56L1250.62,28.56L1250.62,29.79L1251.75,33.37L1252.99,35.73L1256.51,42.79L1261.26,45.15L1267.25,45.15L1267.25,41.67L1268.49,41.67L1273.24,38.08L1309.09,29.79L1310.23,29.79L1310.23,33.37L1309.09,35.73L1301.86,44.02L1299.49,46.38L1297.11,46.38L1293.49,47.5L1291.12,47.5L1291.12,48.73L1288.74,60.5L1288.74,65.32L1287.6,68.8L1287.6,70.03L1289.98,74.74L1291.12,77.09L1293.49,81.8L1295.97,84.15L1297.11,84.15L1300.73,80.67L1310.23,77.09L1312.61,75.96L1313.85,77.09L1315.09,77.09L1316.22,78.32L1322.22,91.32L1323.35,92.45L1322.22,103.09L1322.22,104.32L1320.98,109.03L1320.98,110.26L1318.6,111.39L1317.36,111.39L1316.22,112.62L1315.09,111.39L1307.86,106.68L1300.73,105.45L1298.35,105.45L1295.97,107.91L1294.73,107.91L1293.49,109.03L1293.49,110.26L1295.97,113.74L1303.1,129.2L1305.48,132.68L1305.48,133.91L1307.86,137.39L1313.85,143.33L1317.36,145.69L1319.84,146.91L1322.22,146.91L1332.96,144.56L1356.83,145.69L1361.58,145.69L1369.95,149.27L1377.08,152.85L1379.45,153.98L1389.06,162.27L1391.44,168.21L1391.44,170.56L1396.19,182.34L1417.68,213.16L1420.06,216.64L1422.43,217.87L1437.93,227.28L1441.55,228.51L1443.92,229.74L1452.29,229.74L1458.29,230.87L1465.41,233.22L1466.65,236.81L1465.41,237.93L1464.28,237.93L1448.68,234.45L1437.93,232.1L1424.81,226.16L1422.43,224.93L1417.68,219.09L1393.82,189.51L1384.31,171.69L1381.93,169.34L1377.08,161.04L1372.33,155.21L1369.95,153.98L1368.71,152.85L1359.2,151.62L1344.84,152.85L1340.09,153.98L1326.97,158.69L1312.61,163.5L1307.86,164.63L1299.49,164.63L1289.98,163.5L1286.36,163.5L1282.85,161.04L1278,158.69L1276.86,156.33L1270.87,151.62L1270.87,149.27L1269.63,148.04L1264.87,150.4L1257.75,152.85L1257.75,153.98L1254.13,158.69L1252.99,161.04L1249.38,170.56L1239.87,205.99L1239.87,208.45L1241.01,214.28L1242.25,216.64L1245.76,226.16L1248.14,230.87L1251.75,239.16L1252.99,241.52L1249.38,294.75L1248.14,298.34L1248.14,299.46L1247,297.11L1245.76,293.53L1245.76,291.17L1243.38,281.75L1243.38,267.52L1244.62,262.81L1244.62,260.46L1245.76,258.1L1248.14,255.75L1238.63,243.87L1229.13,240.39L1226.65,239.16L1223.13,235.58L1219.52,229.74L1217.14,228.51L1208.77,228.51L1206.4,229.74L1205.26,230.87L1204.02,233.22L1201.64,236.81L1200.4,253.39L1200.4,255.75L1206.4,255.75L1207.64,254.52L1211.15,253.39L1213.63,253.39L1216.01,255.75L1216.01,260.46L1214.77,269.88L1214.77,273.46L1211.15,281.75L1210.01,284.11L1205.26,287.69L1202.78,288.82L1200.4,288.82L1198.03,287.69L1178.91,277.04L1177.78,274.69L1175.4,272.23L1174.16,269.88L1174.16,267.52L1173.03,262.81L1173.03,261.58L1186.15,243.87L1170.65,227.28L1168.17,223.8L1164.66,215.51L1163.42,213.16L1163.42,210.8L1164.66,209.57L1164.66,205.99L1163.42,205.99L1162.28,204.86L1159.8,203.63L1156.29,202.51L1140.79,202.51L1133.56,203.63L1109.69,209.57L1097.81,211.93L1090.58,215.51L1081.07,217.87L1078.7,217.87L1075.08,215.51L1071.57,214.28L1051.21,214.28L1042.84,215.51L1033.34,220.22L1010.61,242.74L1009.47,245.1L1001.1,272.23L998.73,291.17L998.73,293.53L999.86,300.69L999.86,303.05L1001.1,305.4L1004.62,311.34L1005.86,311.34L1007.1,312.47L1009.47,312.47L1017.84,311.34L1034.48,311.34L1052.45,314.82L1054.83,314.82L1054.83,316.05L1055.97,317.18L1058.34,321.99L1054.83,318.4L1053.59,318.4L1052.45,317.18L1051.21,317.18L1042.84,316.05L1040.47,316.05L1038.09,318.4L1033.34,336.12L1034.48,353.93L1034.48,404.81L1033.34,415.36L1030.96,423.65L1029.72,426.01L1022.59,436.66L1021.35,439.11L1016.6,443.82L1016.6,446.18L1012.99,456.82L1012.99,461.53L1011.85,465.12L1012.99,474.54L1012.99,482.83L1011.85,498.19L1011.85,501.77L1010.61,504.13L1010.61,505.35L1008.23,507.71L1007.1,507.71L987.98,504.13L985.61,502.9L984.37,501.77L965.25,501.77L961.74,502.9L954.51,510.06L949.75,532.48L952.13,547.84L953.37,549.07L961.74,555.01L962.88,556.14L995.11,562.07L996.35,562.07L997.49,559.72L998.73,558.49L1001.1,555.01L1002.24,555.01L1014.23,572.72L1015.47,575.08L1016.6,581.01L1016.6,584.6L1010.61,607.02L999.86,629.54L998.73,631.9L983.13,648.48L981.99,649.61L980.75,649.61L979.61,650.84L968.87,650.84L965.25,651.96L954.51,664.97L953.37,664.97L953.37,673.26L958.12,673.26L960.5,674.49L971.24,680.43L977.24,686.26L978.37,689.85L978.37,693.43L971.24,702.85L970.11,704.08L960.5,711.14L959.26,711.14L955.75,709.91L954.51,707.56L952.13,707.56L937.87,712.27L904.4,724.14L904.4,732.44L898.41,727.73L866.17,714.72L857.8,717.08L863.79,730.08L845.92,724.14L837.55,732.44L829.18,738.38L833.94,757.21L842.3,763.15L841.17,765.51L841.17,775.03L853.05,795.09L857.8,802.16L866.17,811.68L868.55,815.26L872.16,818.75L872.16,821.1L875.78,831.75L875.78,861.34L862.66,880.28L851.91,894.51L850.67,895.63L850.67,903.93L851.91,912.22L853.05,914.57L854.29,915.8L849.54,928.81L833.94,944.16L823.19,945.39L822.05,945.39L822.05,944.16L820.81,945.39L814.92,948.87L814.92,950.1L816.06,957.17L819.68,970.17L820.81,970.17L826.81,966.58L830.42,966.58L841.17,967.81L843.54,967.81L843.54,969.04L853.05,984.4L853.05,985.53L854.29,996.17L854.29,997.4L851.91,1003.34L845.92,1003.34L841.17,1005.69L841.17,1029.34L849.54,1038.76L859.04,1038.76L874.54,1063.64L878.16,1079L881.67,1101.52L884.15,1100.3L888.9,1099.07L896.03,1100.3L897.27,1100.3L899.65,1102.65L902.02,1103.88L906.77,1113.3L906.77,1138.18L903.16,1151.18L891.28,1159.47L878.16,1168.89L872.16,1173.6L871.03,1177.18L873.4,1178.41L873.4,1179.54L875.78,1186.6L867.41,1200.83Z"/>

    <path id="path1" d="M 1136.24,187.97 V 186.84 L 1137.48,185.61 H 1142.24 L 1143.48,186.84 H 1148.23 L 1152.98,187.97 1151.84,186.84 1146.99,184.49 1143.48,183.26 H 1136.24 L 1133.87,184.49 V 185.61 Z" />

    <path id="path2" d="M 1119.61,191.55 1125.6,190.43 V 189.2 H 1126.74 V 187.97 H 1106.49 L 1104.01,190.43 V 191.55 L 1102.87,192.78 V 195.14 H 1104.01 Z" />

    <path id="path3" d="M 1075.39,204.56 1077.77,203.43 1076.63,202.2 V 201.07 L 1077.77,198.62 H 1079.01 L 1088.51,197.49 H 1093.26 L 1095.74,198.62 H 1096.88 V 197.49 L 1095.74,195.14 V 193.91 H 1077.77 L 1075.39,195.14 H 1073.01 L 1071.77,196.26 V 197.49 L 1070.64,199.85 V 203.43 L 1071.77,204.56 Z" />
    
    <path id="path4" d="M 1016.91,212.85 H 1019.29 L 1036.03,210.49 1046.77,208.14 1049.15,206.91 H 1050.39 V 205.78 L 1049.15,204.56 H 1043.15 L 1026.42,205.78 1021.66,206.91 1016.91,210.49 H 1015.67 V 211.72 Z"/>
    
    <path id="path5" d="M 973.93,223.5 H 976.31 L 983.54,222.37 987.05,221.14 991.81,219.91 H 996.66 L 1005.03,218.79 H 1008.54 V 217.56 H 1007.41 V 216.43 H 1003.79 L 983.54,218.79 976.31,219.91 973.93,221.14 972.69,222.37 H 973.93 Z" />
    
    <path id="path6" d="M 976.31,234.14 979.92,230.56 V 229.43 H 981.06 V 228.21 L 977.55,227.08 H 972.69 L 971.55,228.21 V 233.02 L 975.17,234.14 Z" />
    
    <path id="path7" d="M 938.08,249.5 942.94,251.86 948.82,250.73 947.69,247.15 948.82,246.02 953.68,242.44 957.19,241.21 H 960.81 L 962.05,242.44 V 240.08 L 956.06,237.73 953.68,236.5 H 952.44 L 939.32,241.21 938.08,242.44 V 244.79 L 936.94,246.02 938.08,248.37 Z" />

    <text id="germany-label" class="country_name" x="1285" y="900">Germany</text>
  </g>

  <g id="luxembourg-group" aria-labelledby="luxembourg-label">
    <path id="Luxembourg" d="M 864.15,1200.93 H 829.22 L 836.56,1192.23 843.69,1189.77 846.07,1188.65 862.8,1198.06 Z"/>
    <text id="luxembourg-label" class="country_name hidden" x="850" y="1200">Luxembourg</text>
  </g>

  <g id="International-borders">
    <path id="-borders" class="border"  d="M 840.24,1030.27 H 836.62 L 821.12,1031.39 806.87,1030.27 H 784.14 L 785.38,1017.26 783,995.97 790.13,987.68 V 986.45 L 796.12,977.03 V 966.38 L 798.5,955.73 805.63,929.73 V 928.5 L 811.62,922.56 V 920.21 L 809.24,919.08 808,917.85 793.74,910.79 H 790.13 L 786.51,911.91 780.52,913.14 H 779.38 L 777.01,910.79 760.27,902.49 V 901.26 L 743.53,885.91 732.79,890.62 714.91,891.85 H 702.93 L 701.79,890.62 686.29,875.26 675.55,857.55 V 855.19 L 674.31,853.96 675.55,852.84 V 851.61 L 679.06,845.67 680.3,843.32 677.93,840.96 V 838.61 L 675.55,835.02 V 833.9 L 668.32,829.09 H 667.18 L 665.94,831.54 664.8,832.67 V 833.9 L 663.56,838.61 V 840.96 L 661.19,843.32 660.05,845.67 654.06,850.38 650.44,853.96 H 649.31 L 636.18,849.25 632.57,845.67 634.94,836.25 V 831.54 L 631.33,827.96 626.58,825.6 625.34,824.38 H 621.82 L 614.69,830.31 609.84,833.9 603.95,840.96 V 843.32 L 605.09,844.55 603.95,845.67 599.09,846.9 582.46,845.67 H 581.22 V 844.55 L 579.98,842.19 V 840.96 L 581.22,838.61 582.46,837.38 583.6,832.67 V 830.31 H 582.46 L 581.22,829.09 571.71,830.31 556.11,838.61 V 848.03 L 546.61,859.9 529.87,862.26"/>

    <path class="border" d="M 840.24,1030.27 V 1006.62 L 844.99,1004.16 H 850.98 L 853.36,998.32 V 997.09 L 852.22,986.45 V 985.32 L 842.61,969.86 V 968.73 H 840.24 L 829.49,967.51 H 825.88 L 819.99,971.09 H 818.75 L 815.13,958.09 813.99,951.02 V 949.79 L 819.99,946.21 821.12,945.08 V 946.21 H 822.36 L 833.11,945.08 848.61,929.73 853.36,916.62 852.22,915.5 850.98,913.14 849.85,904.85 V 896.56 L 850.98,895.33 861.73,881.2 874.85,862.26 V 832.67 L 871.23,822.02 V 819.67 L 867.72,816.08 865.34,812.6 856.98,803.08 852.22,796.02 840.24,775.95 V 766.43 L 841.48,764.07 833.11,758.13 828.36,739.19 836.62,733.36 844.99,725.07 862.97,731 856.98,717.9 865.34,715.54 897.58,728.55 903.47,733.36 V 725.07 L 936.94,713.19 951.3,708.48 H 953.68 L 954.82,710.83 958.43,712.06 H 959.57 L 969.18,704.9 970.32,703.77 977.55,694.25 V 690.77 L 976.31,687.18 970.32,681.25 959.57,675.41 957.19,674.18 H 952.44 V 665.89 H 953.68 L 964.43,652.89 967.94,651.66 H 978.68 L 979.92,650.53 H 981.06 L 982.3,649.3 997.8,632.82 999.04,630.36 1009.78,607.94 1015.67,585.42 V 581.94 L 1014.54,576 1013.3,573.64 1001.41,555.93 H 1000.17 L 997.8,559.41 996.66,560.64 995.42,562.99 H 994.28 L 962.05,557.06 960.81,555.93 952.44,549.99 951.3,548.76 948.82,533.41 953.68,510.98 958.43,506.17 960.81,503.82 964.43,502.69 H 983.54 L 984.68,503.82 987.05,505.05 1006.17,508.53 H 1007.41 L 1009.78,506.17 V 505.05 L 1010.92,502.69 V 499.11 L 1012.16,483.75 V 475.46 L 1010.92,466.04 1012.16,462.46 V 457.75 L 1015.67,447.1 V 444.74 L 1018.05,442.29 1020.53,439.93 1021.66,437.58 1028.79,426.93 1030.03,424.57 1032.41,416.28 1033.65,405.63 V 354.75 L 1032.41,337.04" id="path14" />

    <path class="border" d="M 377.06,856.32 V 876.49 L 378.3,884.68 V 885.91 L 379.54,887.14 387.81,892.97 V 894.2 H 396.18 L 402.17,892.97 403.41,891.85 V 888.26 L 402.17,883.55 403.41,882.32 V 881.2 L 416.53,877.61 428.41,881.2 448.77,889.49 H 449.9 L 451.14,890.62 449.9,896.56 V 901.26 H 451.14 L 452.28,902.49 466.64,905.97 H 470.26 L 478.52,903.62 497.64,892.97 508.38,885.91 514.37,882.32 516.75,879.97 526.36,869.32 528.73,866.97" id="path15" />

    <path class="border" d="M 521.91,1204.01 517.99,1174.52 512,1161.52 490.51,1141.45 H 489.27 L 477.38,1143.81 463.02,1144.93 438.02,1142.58 426.04,1128.45 424.9,1118.93 V 1116.57 L 423.66,1111.86 416.53,1102.34 H 415.29 L 414.15,1101.22 H 412.91 L 397.42,1095.28 389.05,1094.05 386.67,1096.51 V 1097.63 L 372.31,1101.22 371.17,1099.99 359.19,1092.92 355.68,1088.21 349.68,1053.92 V 1052.69 L 350.82,1051.46 V 1050.33 L 353.2,1049.1 V 1047.98 L 352.06,1042.04 350.82,1039.69 336.56,1019.62 335.32,1018.39 H 334.19 L 328.19,1017.26 316.21,1020.74 299.47,1026.68 297.09,1029.04 289.97,1043.27 V 1042.04 L 280.46,1034.98 257.73,1013.68 245.85,1008.97 243.37,1007.74 V 1006.62 L 239.86,994.74 238.62,981.74 244.61,971.09 243.37,969.86 V 966.38 L 230.25,933.21 229.11,932.08" id="path16" />

    <path class="border" id="Netherlands-Germany-border" d="M 840.24,1030.27 V 1006.62 L 844.99,1004.16 H 850.98 L 853.36,998.32 V 997.09 L 852.22,986.45 V 985.32 L 842.61,969.86 V 968.73 H 840.24 L 829.49,967.51 H 825.88 L 819.99,971.09 H 818.75 L 815.13,958.09 813.99,951.02 V 949.79 L 819.99,946.21 821.12,945.08 V 946.21 H 822.36 L 833.11,945.08 848.61,929.73 853.36,916.62 852.22,915.5 850.98,913.14 849.85,904.85 V 896.56 L 850.98,895.33 861.73,881.2 874.85,862.26 V 832.67 L 871.23,822.02 V 819.67 L 867.72,816.08 865.34,812.6 856.98,803.08 852.22,796.02 840.24,775.95 V 766.43 L 841.48,764.07 833.11,758.13 828.36,739.19 836.62,733.36 844.99,725.07 862.97,731 856.98,717.9 865.34,715.54 897.58,728.55 903.47,733.36 V 725.07 L 936.94,713.19 951.3,708.48 H 953.68 L 954.82,710.83 958.43,712.06 H 959.57 L 969.18,704.9 970.32,703.77 977.55,694.25 V 690.77 L 976.31,687.18 970.32,681.25 959.57,675.41 957.19,674.18 H 952.44 V 665.89 H 953.68 L 964.43,652.89 967.94,651.66 H 978.68 L 979.92,650.53 H 981.06 L 982.3,649.3 997.8,632.82 999.04,630.36 1009.78,607.94 1015.67,585.42 V 581.94 L 1014.54,576 1013.3,573.64 1001.41,555.93 H 1000.17 L 997.8,559.41 996.66,560.64 995.42,562.99 H 994.28 L 962.05,557.06 960.81,555.93 952.44,549.99 951.3,548.76 948.82,533.41 953.68,510.98 958.43,506.17 960.81,503.82 964.43,502.69 H 983.54 L 984.68,503.82 987.05,505.05 1006.17,508.53 H 1007.41 L 1009.78,506.17 V 505.05 L 1010.92,502.69 V 499.11 L 1012.16,483.75 V 475.46 L 1010.92,466.04 1012.16,462.46 V 457.75 L 1015.67,447.1 V 444.74 L 1018.05,442.29 1020.53,439.93 1021.66,437.58 1028.79,426.93 1030.03,424.57 1032.41,416.28 1033.65,405.63 V 354.75 L 1032.41,337.04"/>

    <path class="border" id="Netherlands-Belgium-border" d="M 377.06,856.32 V 876.49 L 378.3,884.68 V 885.91 L 379.54,887.14 387.81,892.97 V 894.2 H 396.18 L 402.17,892.97 403.41,891.85 V 888.26 L 402.17,883.55 403.41,882.32 V 881.2 L 416.53,877.61 428.41,881.2 448.77,889.49 H 449.9 L 451.14,890.62 449.9,896.56 V 901.26 H 451.14 L 452.28,902.49 466.64,905.97 H 470.26 L 478.52,903.62 497.64,892.97 508.38,885.91 514.37,882.32 516.75,879.97 526.36,869.32 528.73,866.97 M 840.24,1030.27 H 836.62 L 821.12,1031.39 806.87,1030.27 H 784.14 L 785.38,1017.26 783,995.97 790.13,987.68 V 986.45 L 796.12,977.03 V 966.38 L 798.5,955.73 805.63,929.73 V 928.5 L 811.62,922.56 V 920.21 L 809.24,919.08 808,917.85 793.74,910.79 H 790.13 L 786.51,911.91 780.52,913.14 H 779.38 L 777.01,910.79 760.27,902.49 V 901.26 L 743.53,885.91 732.79,890.62 714.91,891.85 H 702.93 L 701.79,890.62 686.29,875.26 675.55,857.55 V 855.19 L 674.31,853.96 675.55,852.84 V 851.61 L 679.06,845.67 680.3,843.32 677.93,840.96 V 838.61 L 675.55,835.02 V 833.9 L 668.32,829.09 H 667.18 L 665.94,831.54 664.8,832.67 V 833.9 L 663.56,838.61 V 840.96 L 661.19,843.32 660.05,845.67 654.06,850.38 650.44,853.96 H 649.31 L 636.18,849.25 632.57,845.67 634.94,836.25 V 831.54 L 631.33,827.96 626.58,825.6 625.34,824.38 H 621.82 L 614.69,830.31 609.84,833.9 603.95,840.96 V 843.32 L 605.09,844.55 603.95,845.67 599.09,846.9 582.46,845.67 H 581.22 V 844.55 L 579.98,842.19 V 840.96 L 581.22,838.61 582.46,837.38 583.6,832.67 V 830.31 H 582.46 L 581.22,829.09 571.71,830.31 556.11,838.61 V 848.03 L 546.61,859.9 529.87,862.26"/>

    <path class="border" id="Belgium-France-border" d="M 522.12,1202.98 517.99,1174.52 512,1161.52 490.51,1141.45 H 489.27 L 477.38,1143.81 463.02,1144.93 438.02,1142.58 426.04,1128.45 424.9,1118.93 V 1116.57 L 423.66,1111.86 416.53,1102.34 H 415.29 L 414.15,1101.22 H 412.91 L 397.42,1095.28 389.05,1094.05 386.67,1096.51 V 1097.63 L 372.31,1101.22 371.17,1099.99 359.19,1092.92 355.68,1088.21 349.68,1053.92 V 1052.69 L 350.82,1051.46 V 1050.33 L 353.2,1049.1 V 1047.98 L 352.06,1042.04 350.82,1039.69 336.56,1019.62 335.32,1018.39 H 334.19 L 328.19,1017.26 316.21,1020.74 299.47,1026.68 297.09,1029.04 289.97,1043.27 V 1042.04 L 280.46,1034.98 257.73,1013.68 245.85,1008.97 243.37,1007.74 V 1006.62 L 239.86,994.74 238.62,981.74 244.61,971.09 243.37,969.86 V 966.38 L 230.25,933.21 229.11,932.08"/>
  </g>

  <rect class="frame" width="100%" height="100%" />

</svg>
