<svg xmlns="http://www.w3.org/2000/svg" viewBox="0 0 440 550">
  <title id="diagram-title">Plant Cell Structure</title>

  <metadata data-type="text/jim+json">
    {
      "datasets": [
        {
          "title": "Plant Cell Structure",
          "description": "Drawing of a plant cell with details on its internal structures",
          "source": {
            "url": "https://inclusioproject.com/graphics/exemplars/E006-Plant_Cell_Structure.svg",
            "name": "Inclusio Project accessible graphic examplar: E006 Plant Cell Structure"
          },
          "items": {
            "amyloplast": {
              "label": "Amyloplast",
              "relationship": {
                "type": "instance",
                "ref": "leucoplasts"
              }
            },
            "cell_wall": {
              "label": "Cell Wall",
              "description": "The cell wall is a rigid outer layer that provides shape, support, and protection to the cell. It consists mainly of cellulose. Plant cells have cell walls, while animal cells do not."
            },
            "cell_membrane": {
              "label": "Cell Membrane",
              "description": "The cell membrane is a semi-permeable membrane composed of lipids and proteins that surrounds the cell. It forms the boundary between the outer environment and living systems. Both plant and animal cells have cell membranes."
            },
            "chloroplasts": {
              "label": "Chloroplasts",
              "description": "Chloroplasts are the sites of photosynthesis, where sunlight, carbon dioxide, and water are converted into glucose and oxygen. Chloroplasts contain chlorophyll, a green pigment which captures light energy."
            },
            "cytoplasm": {
              "label": "Cytoplasm",
              "description": "Cytoplasm is the gelatinous liquid that fills the inside of a cell, composed of water, salts, and various organic molecules. The cytoplasm includes the cytoskeleton, a network of protein fibers that provides structural support."
            },
            "druse_crystal": {
              "label": "Druse crystal",
              "relationship": {
                "type": "contained",
                "ref": "vacuole"
              }
            },
            "endoplasmic_reticulum": {
              "label": "Endoplasmic Reticulum (ER)",
              "description": "Endoplasmic Reticulum is a network of membranous tubules and sacs that synthesize lipids and fold proteins. The rough ER is studded with ribosomes and synthesizes proteins, while the smooth ER performs lipid and steroid hormone synthesis. Part of the ER is contiguous with the nuclear envelope."
            },
            "golgi_apparatus": {
              "label": "Golgi Apparatus",
              "description": "The Golgi apparatus modifies, sorts, and packages proteins and lipids for transport to their final destinations inside or outside the cell. It is closely associated with the Endoplasmic Reticulum."
            },
            "leucoplasts": {
              "label": "Leucoplasts",
              "description": "Leucoplasts are plastids and that synthesize and store macromolecules, such as starches, lipids, and proteins. Amyloplasts are a type of Leucoplast that specializes in the synthesis and storage of starch granules, and also play a role in gravity sensing (gravitropism) in roots and shoots."
            },
            "mitochondria": {
              "label": "Mitochondria",
              "description": "Mitochondria are the powerhouse of the cell. They produce ATP through a process called cellular respiration."
            },
            "nucleus": {
              "label": "Nucleus",
              "description": "The nucleus is the control center of the cell. It contains the plant DNA which directs all cellular activities. The nucleolus, the largest structure in the cell, synthesizes ribosomes. The nucleus is enclosed by a nuclear membrane, a double-membrane structure with nuclear pores that regulates transport and communication with the cytoplasm."
            },
            "peroxisomes": {
              "label": "Peroxisomes",
              "description": "Plant peroxisomes perform a key role in photorespiration and also produce plant hormones."
            },
            "plasma_membrane": {
              "label": "Plasma Membrane",
              "description": "The Plasma Membrane is a semi-permeable membrane that controls the movement of substances into and out of the cell."
            },
            "plasmodesmata": {
              "label": "Plasmodesmata",
              "description": "Plasmodesmata are small tubes that connect plant cells to each other, allowing direct communication and transport of substances between cell. Plasmodesmata are a unique feature of plant cells not found in animal cells."
            },
            "raphide_crystal": {
              "label": "Raphide Crystal",
              "relationship": {
                "type": "contained",
                "ref": "vacuole"
              }
            },
            "ribosomes": {
              "label": "Ribosomes",
              "description": "Ribosomes are the sites of protein synthesis. They are either free in the cytoplasm or bound to the Endoplasmic Reticulum."
            },
            "vacuole": {
              "label": "Vacuole",
              "description": "The vacuole stores water and helps maintain turgor pressure, supporting the cell structure. Plant cells contain a large central vacuole, while animal cells contain multiple small vacuoles. Some plant vacuoles contain Druse and raphite crystals of calcium oxalate and calcium carbonates that deter herbivores and also store minerals for the cell."
            }                  
          }
        }
      ],
      "selectors": {
        "#diagram-title": "$.datasets[0].title",
        "#cell-wall": "$.datasets[0].items.cell_wall",
        "#cell-membrane": "$.datasets[0].items.cell_membrane",
        "#cytoplasm": "$.datasets[0].items.cytoplasm",
        ".peroxisome": "$.datasets[0].items.peroxisomes",
        "#endoplasmic-reticulum-smooth": "$.datasets[0].items.endoplasmic_reticulum",
        "#endoplasmic-reticulum-rough": "$.datasets[0].items.endoplasmic_reticulum",
        "#ribosomes": "$.datasets[0].items.ribosomes",
        "#cell-nucleus": "$.datasets[0].items.nucleus",
        "#Golgi-apparatus": "$.datasets[0].items.golgi_apparatus",
        "#amyloplast": [
          "$.datasets[0].items.amyloplast",
          "$.datasets[0].items.leucoplasts"
        ],
        ".mitochondria": "$.datasets[0].items.mitochondria",
        ".chloroplast": "$.datasets[0].items.chloroplasts",
        "#vacuole": "$.datasets[0].items.vacuole",
        ".plasmodesmata": "$.datasets[0].items.plasmodesmata",
        "#druse-crystal": [
          "$.datasets[0].items.druse_crystal",
          "$.datasets[0].items.vacuole"
        ],
        ".raphide_crystal": [
          "$.datasets[0].items.raphide_crystal",
          "$.datasets[0].items.vacuole"
        ]
      },
      "status": {
        "features": [
          "haptic",
          "announcement"
        ]
      }
    }
  </metadata>

  <style>
    :root {
      --basic: none;
      --medium: none;
      --advanced: inline;
    }


    .peroxisome,
    .endoplasmic-reticulum,
    .ribosome,
    .nucleolus,
    .golgi-apparatus,
    .amyloplast,
    .mitochondria,
    .chloroplast,
    .vacuole,
    .druse-crystal,
    .raphide-crystal,
    .plasmodesmata {
      display: var(--advanced);
    }

    /* Placeholder for switching between complexity levels */
    @media (max-width: 60rem) {
      .peroxisome,
      .endoplasmic-reticulum,
      .ribosome,
      .nucleolus,
      .golgi-apparatus,
      .amyloplast,
      .mitochondria,
      .druse-crystal,
      .raphide-crystal,
      .plasmodesmata {
        display: var(--basic);
      }
    }

    @media (max-width: 80rem) {
      .peroxisome,
      .amyloplast,
      .mitochondria,
      .druse-crystal,
      .raphide-crystal {
        display: var(--medium);
      }
    }

    
    .cell-wall {
      fill: rgb(51,132,13);
      stroke: rgb(30,81,3);
      stroke-width: 2px;
    }

    .cell-membrane {
      fill: rgb(187,242,151);
    }

    .cytoplasm {
      fill: rgb(147,214,103);
    }

    .peroxisome-core {
      fill: rgb(255,233,77);
    }

    .peroxisome-wall {
      fill: none;
      stroke: rgb(38,117,225);
      stroke-width: 7px;
    }

    .golgi-apparatus {
      fill: rgb(255,142,49);
      stroke: rgb(221,83,14);
      stroke-width: 1px;
    }

    .endoplasmic-reticulum {
      fill: rgb(115,142,255);
      stroke: rgb(56,116,178);
      stroke-width: 1px
    }

    .ribosome {
      fill: hsl(231, 90%, 57%);
    }


    .nucleus {
      fill: rgb(175,121,188);
    }

    .nucleolus {
      fill:rgb(108,64,150);
    }


    .amyloplast-1 {
      fill:rgb(189,155,198);stroke:rgb(108,56,120);stroke-width:1px;
    }

    .amyloplast-2 {
      fill:rgb(209,161,219);stroke:rgb(146,92,155);stroke-width:1px;
    }

    .amyloplast-3 {
      fill:rgb(189,155,198);stroke:rgb(146,92,155);stroke-width:1px;
    }

    .amyloplast-4 {
      fill:rgb(209,161,219);stroke:rgb(180,130,190);stroke-width:1px;
    }

    .amyloplast-5 {
      fill:rgb(209,161,219);stroke:rgb(163,111,172);stroke-width:1px;
    }


    .mitochondrion-membrane {
      fill: rgb(224,10,56);
    }

    .mitochondrion-cristae {
      fill: rgb(252,94,135);
    }

    .chloroplast-membrane {
      fill: rgb(114,201,13);
      stroke: rgb(50,139,15);
      stroke-width: 1px;
    }

    .thylakoid-1 {
      fill:rgb(217,255,80);
    }

    .thylakoid-2 {
      fill:rgb(193,239,51);
    }

    .vacuole-tonoplast {
      fill: rgb(153, 211, 255);
      stroke: rgb(92, 164, 233);
      stroke-width: 1px;
    }

    #druse-crystal-1 {
      fill: rgb(113, 188, 255);
      stroke: rgb(60, 139, 221);
      stroke-width: 1px;
    }
    
    #druse-crystal-2 {
      fill: #99d3ff;
      stroke: #4390e0;
      stroke-width: 1px;
    }
    
    #druse-crystal-3 {
      fill: rgb(113, 188, 255);
      stroke: rgb(41, 124, 214);
      stroke-width: 1px;
    }

    .raphide-crystal {
      fill: rgb(234, 231, 214);
      stroke: rgb(67, 68, 65);
      stroke-width: 1px;
    }

    .plasmodesma {
      fill: rgb(147,214,103);
    }

  </style>


  <g id="Plant-Cell-Structure">
    <path id="cell-wall" class="cell-wall" d="M389.44,515.02C345.57,517.87 346.8,518.69 314.41,524.14C297.3,527.03 252.51,531.73 244.05,531.29C237.85,530.96 184.62,534.74 177.25,534.13C159.01,532.65 161.88,530.99 131.44,529.68C92.06,527.99 49.44,522.4 29.44,525.37C9.44,528.35 2.78,514.68 13.44,488.68C24.11,462.68 23.23,453.02 20.23,380.52C17.23,308.02 11.73,272.58 5.78,237.08C-0.18,201.58 22.18,143.32 19.93,87.36C17.77,33.77 14.19,24.35 21.44,17.35C28.69,10.35 79.63,12.61 127.94,24.1C161.31,32.04 214.99,30.86 249.99,29.69C263.5,29.23 274.23,28.78 279.94,28.85C320.44,29.35 347.19,27.85 382.94,19.6C418.69,11.35 423.44,30.85 415.69,58.6C407.94,86.35 404.14,118.59 405.81,173.59C407.48,228.59 407.14,257.32 408.44,309.35C409.6,355.43 414.78,408.69 428.11,444.35C441.44,480.02 441.67,511.63 389.44,515.02Z" />
    <path id="cell-membrane" class="cell-membrane" d="M342.04,503.28C307.1,506.92 248.15,514.27 203.15,513.94C190.62,513.85 180.77,514.15 172.28,514.45C150.26,515.23 137.33,516 110.49,509.94C69.15,500.61 38.28,509.94 32.62,500.27C26.95,490.61 36.82,461.61 36.82,438.94C36.82,416.27 30.81,365.22 27.82,329.61C21.49,254.11 6.93,236.22 16.6,187.13C25.1,143.97 30.65,93.94 27.15,59.44C23.65,24.94 49.15,23.94 93.65,29.94C138.15,35.94 239.72,50.09 322.72,40.09C405.72,30.09 398.13,44.39 391.49,79.55C385.49,111.33 390.18,136.4 394.82,221.41C397.97,279.15 385.15,340.94 397.65,394.44C410.15,447.94 421.18,454.34 413.82,480.27C406.26,506.94 367.75,500.6 342.04,503.28Z" />
    <path id="cytoplasm" class="cytoplasm" d="M307.25,495.45C274.55,503.67 244.9,508.08 201.73,507.76C189.71,507.67 180.26,507.96 172.11,508.25C150.98,509 138.59,509.76 112.83,503.87C73.18,494.8 44.35,503.67 38.92,494.28C33.48,484.89 42.16,456.91 42.16,434.89C42.16,412.86 36.39,363.25 33.53,328.66C27.45,255.3 14.66,227.37 23.93,179.67C32.09,137.74 36.25,99.68 32.89,66.16C29.53,32.64 53.99,31.67 96.68,37.49C139.37,43.32 236.81,57.07 316.43,47.36C396.06,37.64 388.77,51.53 382.4,85.7C376.64,116.57 386.16,177.92 387.24,222.63C388.61,278.81 376.32,339.67 388.31,391.65C400.31,443.63 410.88,449.85 403.82,475.04C396.57,500.96 352.34,484.11 307.25,495.45Z" />

    <g id="peroxisome-1" class="peroxisome">
      <path class="peroxisome-wall" d="M132.81,86.43C139.25,80.65 141.42,67.83 131.21,62.69C120.98,57.52 112.26,67.46 112.49,77.18C112.74,86.90 124.84,93.56 132.81,86.43Z" />
      <path class="peroxisome-core" d="M132.81,86.43C139.25,80.65 141.42,67.83 131.21,62.69C120.98,57.52 112.26,67.46 112.49,77.18C112.74,86.90 124.84,93.56 132.81,86.43Z" />
    </g>

    <g id="peroxisome-2" class="peroxisome">
      <path class="peroxisome-wall" d="M216.69,85.45C220.55,90.62 229.64,92.78 233.77,85.14C237.91,77.48 231.17,70.40 224.20,70.20C217.23,70.02 211.93,79.05 216.69,85.45L216.69,85.45Z" />
      <path class="peroxisome-core" d="M 216.87,85.79 C 220.73,90.96 229.82,93.12 233.95,85.48 238.09,77.82 231.35,70.74 224.38,70.54 217.41,70.36 212.11,79.39 216.87,85.79 Z" />
    </g>

    <g id="peroxisome-3" class="peroxisome">
      <path class="peroxisome-wall" d="M338.76 98.98c4.23 5.59 14.14 7.89 18.60-.41 4.47-8.32-2.90-15.97-10.5-16.15-7.59-.17-13.32 9.65-8.10 16.57Z" />
      <path class="peroxisome-core" d="M338.76 98.98c4.23 5.59 14.14 7.89 18.60-.41 4.47-8.32-2.90-15.97-10.5-16.15-7.59-.17-13.32 9.65-8.10 16.57Z" />  
    </g>

    <g id="peroxisome-4" class="peroxisome">
      <path class="peroxisome-wall" d="M85.40,476.69C90.31,472.51 91.89,463.31 84.02,459.70C76.13,456.08 69.49,463.26 69.74,470.21C69.99,477.17 79.33,481.86 85.40,476.69Z" />
      <path class="peroxisome-core" d="M85.40,476.69C90.31,472.51 91.89,463.31 84.02,459.70C76.13,456.08 69.49,463.26 69.74,470.21C69.99,477.17 79.33,481.86 85.40,476.69Z" />
    </g>

    <g id="peroxisome-5" class="peroxisome">
      <path class="peroxisome-wall" d="M53.32 157.44c4.55-3.61 6.23-11.69-.80-15.02-7.04-3.33-13.24 2.88-13.20 9.02.04 6.14 8.38 10.44 14.01 5.99Z" />
      <path class="peroxisome-core" d="M53.32 157.44c4.55-3.61 6.23-11.69-.80-15.02-7.04-3.33-13.24 2.88-13.20 9.02.04 6.14 8.38 10.44 14.01 5.99Z" />  
    </g>

    <g id="peroxisome-6" class="peroxisome">
      <path class="peroxisome-wall" d="M308.16,423.86 C311.56,421.00 312.78,414.57 307.48,411.90C302.18,409.23 297.56,414.17 297.62,419.06C297.69,423.95 303.96,427.39 308.16,423.86 Z" />
      <path class="peroxisome-core" d="M308.16,423.86C311.56,421.00 312.78,414.57 307.48,411.90C302.18,409.23 297.56,414.17 297.62,419.06C297.69,423.95 303.96,427.39 308.16,423.86L308.16,423.86Z" />
    </g>

    <path id="endoplasmic-reticulum-smooth" class="endoplasmic-reticulum" d="M130.81,466.18C128.82,470.93 132.28,475.32 145.80,475.12C159.32,474.91 164.45,475.40 165.91,479.70C166.55,481.59 160.78,479.67 155.09,480.17C149.40,480.69 147.01,479.31 147.90,483.18C148.80,487.06 164.21,491.23 171.70,488.81C179.19,486.39 182.93,483.90 182.11,481.05C181.29,478.20 175.51,479.18 171.93,480.30C168.34,481.40 169.57,475.80 172.30,475.34C175.04,474.87 181.88,475.53 188.16,471.43C193.13,468.19 194.23,466.89 195.32,467.82C196.42,468.76 193.42,470.36 189.44,473.21C185.45,476.06 184.28,477.61 185.77,479.27C187.25,480.94 195.38,477.27 201.25,472.49C207.12,467.71 209.18,464.96 208.09,463.41C207.01,461.87 203.98,463.54 201.56,464.97C199.13,466.39 198.73,464.89 200.24,463.61C201.75,462.34 207.31,458.85 211.19,455.36C215.07,451.87 215.86,454.96 213.25,457.28C210.64,459.60 209.17,461.32 210.35,462.55C211.26,463.52 214.30,462.37 216.69,460.76C219.08,459.16 219.60,462 213.54,466.81C207.65,471.50 192.97,483.94 177.81,489.74C167.62,493.64 165.13,495.41 166.48,498.23C168.33,502.08 180.86,500.07 196.66,491.52C217.91,480 239.68,458.86 244.27,451.35C246.47,447.73 246.46,445.65 245.11,444.54C243.77,443.41 240.36,443.73 234.24,450.63C228.11,457.52 222.93,460.58 221.83,459.16C219.96,456.78 232.05,447.36 237.62,440.62C243.17,433.88 248.80,425.04 250.55,419.60C252.29,414.16 246.47,412.82 241.15,420.02C235.84,427.23 224.84,443.42 220.54,447.57C216.25,451.71 214.24,450.67 216.94,447.76C219.64,444.87 236.30,425.16 243.35,409.69C249.76,395.63 241.00,391.52 237.80,399.53C231.57,415.14 215.75,445.26 193.84,457.51C171.92,469.77 156.03,467.22 146.31,467.00C136.34,466.77 132.25,462.73 130.81,466.18Z" />

    <path id="endoplasmic-reticulum-rough" class="endoplasmic-reticulum" d="M90.01 270.07c17.62-10.87 17.47-22.48 23.74-20.91 6.27 1.56-6.64 16.40-18.85 24.44-8.15 5.36-10.35 7.18-9.87 9.5.29 1.41 5.12-.89 16.42-6.38 11.29-5.50 35.94-12.57 53.21-12.71 17.27-.13 11.43 3.89 6.76 5.10-3.57.92-4.40 1.48-4.08 2.72.32 1.23 6.07 1.16 13.68 3.10 5.49 1.39 7.02 3.99 7.04 5.03.02 1.04-.34 4.11-10.03 1.96-9.69-2.14-18.13-1.73-22.48-1.36-4.34.37-6.01-2.19-1.10-3.83 4.89-1.62 7.95-2.54 6.99-4.57-1.02-2.14-12.02.32-18.82 1.45-12.48 2.07-24.03 7.73-23.14 8.93.88 1.18 2.74-.79 9.67-2.92 6.93-2.12 16.78-3.70 17.54-1.09.74 2.60-4 2.98-12.26 5.67-8.26 2.67-16.36 5.65-14.74 7.68.79.98 4.51-1.74 19.49-5.94 12.50-3.50 17.73-2.94 18.54-.70.79 2.24-3.39 4.01-11.36 5.11-7.97 1.10-21.16 5.89-20.47 8.05.68 2.17 8.70-3.35 25.52-3.72 14.16-.31 37.49 5.62 36.50 13.06-.85 6.43-8.4-5.35-30.35-6.39-11.16-.52-29.41-1.65-47.96 11.92-18.54 13.58-33.20 31.97-32.50 64.17.22 10.03-6.84 7.01-6.55-1.94.29-8.96 4.90-28.29 4.90-28.29s-2.24.36-5.14 13.76c-2.98 13.73-5.23 16.34-6.33 12.74-1.00-3.27.99-22.67 6.06-35.13 3.67-9.05 7.15-8.93 6.40-4.53-.76 4.39-3.17 10.88-.62 10.37 2.19-.43 1.60-2.96 9.22-15.00 2.10-3.32 2.24-5.64 1.06-6.00-1.00-.31-.63-1.14-4.2 4.22-3.56 5.35-5.48 2.07-2.91-2.30 3.47-5.96 2.94-6.57 1.86-7.15-1.08-.56-3.44 1.92-5.48 5.34-2.03 3.41-4.12 4.97-8.80 18.35-4.25 12.14-3.84 13.64-6.80 13.77-2.95.14.51-14.12 6.70-28.16 6.19-14.03 23.73-27.08 26.64-24.66 2.90 2.41-2.49 5.17-6.22 9.10-6.68 7.03-3.08 8.51-.34 5.20 6.55-7.88 15.03-14.66 18.72-12.47 3.68 2.20-9.61 7.11-13.44 14.90-3.83 7.78 9.25-10.57 27.84-18.83 3.11-1.38.45-2.51-6.97.99-7.42 3.52-6.19-.97-4.26-2.19 1.92-1.22 8.37-3.26 7.4-5.68-.92-2.30-8.20 3.14-11.16 4.56-6.98 3.32-7.39 4.18-9.14 2.84-1.74-1.33 5.68-8.34 14.47-12.07 8.78-3.73-.02-5.59-11.34 1.19-11.31 6.79-18.97 16.02-23.66 20.17-4.68 4.16-5.43 4.72-6.56 3.89-1.95-1.45 5.47-10.98 9.23-14.84 6.75-6.94 11.43-8.85 14.05-11.39 2.61-2.53 1.33-5.13-3.47-1.91-4.79 3.22-10.84 7.59-15.55 9.01-4.70 1.40-10.65.24-6.54-7.19 4.73-8.56 17.89-8.17 33.87-18.04Z"/>
        
    <g id="ribosomes">
      <path class="ribosome" d="M143.78,283.91C143.78,283.31 144.29,282.82 144.93,282.82C145.57,282.82 146.09,283.31 146.09,283.91C146.09,284.51 145.57,285 144.93,285C144.29,285 143.78,284.51 143.78,283.91Z" />
      <path class="ribosome" d="M141.89,276.58C141.89,277.27 141.38,277.84 140.76,277.84C140.14,277.84 139.63,277.27 139.63,276.58C139.63,275.88 140.14,275.32 140.76,275.32C141.38,275.32 141.89,275.88 141.89,276.58Z" />
      <path class="ribosome" d="M161.55,276.86C161.55,276.17 162.16,275.61 162.92,275.61C163.68,275.61 164.3,276.17 164.3,276.86C164.3,277.55 163.68,278.11 162.92,278.11C162.16,278.11 161.55,277.55 161.55,276.86Z" />
      <path class="ribosome" d="M156.55,280.9C156.55,280.37 157.05,279.94 157.67,279.94C158.29,279.94 158.8,280.37 158.8,280.9C158.8,281.43 158.29,281.86 157.67,281.86C157.05,281.86 156.55,281.43 156.55,280.9Z" />
      <path class="ribosome" d="M148.46,276.86C148.46,276.17 148.97,275.61 149.59,275.61C150.21,275.61 150.71,276.17 150.71,276.86C150.71,277.55 150.21,278.11 149.59,278.11C148.97,278.11 148.46,277.55 148.46,276.86Z" />
      <path class="ribosome" d="M154.46,269.4C154.46,268.69 155.02,268.11 155.71,268.11C156.4,268.11 156.96,268.69 156.96,269.4C156.96,270.11 156.4,270.69 155.71,270.69C155.02,270.69 154.46,270.11 154.46,269.4Z" />
      <path class="ribosome" d="M146.96,266.69C146.96,266.14 147.37,265.69 147.88,265.69C148.39,265.69 148.8,266.14 148.8,266.69C148.8,267.24 148.39,267.69 147.88,267.69C147.37,267.69 146.96,267.24 146.96,266.69Z" />
      <path class="ribosome" d="M138.46,268.82C138.46,268.19 138.99,267.69 139.63,267.69C140.27,267.69 140.8,268.19 140.8,268.82C140.8,269.44 140.27,269.94 139.63,269.94C138.99,269.94 138.46,269.44 138.46,268.82Z" />
      <path class="ribosome" d="M129.05,271.34C129.05,270.57 129.74,269.94 130.59,269.94C131.44,269.94 132.13,270.57 132.13,271.34C132.13,272.12 131.44,272.74 130.59,272.74C129.74,272.74 129.05,272.12 129.05,271.34Z" />
      <path class="ribosome" d="M120.05,257.77C120.05,257.13 120.7,256.61 121.51,256.61C122.31,256.61 122.96,257.13 122.96,257.77C122.96,258.42 122.31,258.94 121.51,258.94C120.7,258.94 120.05,258.42 120.05,257.77Z" />
      <path class="ribosome" d="M117.88,263.07C117.88,262.44 118.36,261.94 118.96,261.94C119.56,261.94 120.05,262.44 120.05,263.07C120.05,263.69 119.56,264.19 118.96,264.19C118.36,264.19 117.88,263.69 117.88,263.07Z" />
      <path class="ribosome" d="M113.38,270.67C113.38,269.97 113.94,269.4 114.63,269.4C115.32,269.4 115.88,269.97 115.88,270.67C115.88,271.37 115.32,271.94 114.63,271.94C113.94,271.94 113.38,271.37 113.38,270.67Z" />
      <path class="ribosome" d="M107.38,266.44C107.38,265.75 107.92,265.19 108.59,265.19C109.26,265.19 109.8,265.75 109.8,266.44C109.8,267.13 109.26,267.69 108.59,267.69C107.92,267.69 107.38,267.13 107.38,266.44Z" />
      <path class="ribosome" d="M101.13,261.92C101.13,261.29 101.69,260.77 102.38,260.77C103.07,260.77 103.63,261.29 103.63,261.92C103.63,262.55 103.07,263.07 102.38,263.07C101.69,263.07 101.13,262.55 101.13,261.92Z" />
      <path class="ribosome" d="M84.8,262.4C84.8,261.73 85.36,261.19 86.05,261.19C86.74,261.19 87.3,261.73 87.3,262.4C87.3,263.07 86.74,263.61 86.05,263.61C85.36,263.61 84.8,263.07 84.8,262.4Z" />
      <path class="ribosome" d="M93.63,269.73C93.63,268.83 94.3,268.11 95.13,268.11C95.96,268.11 96.63,268.83 96.63,269.73C96.63,270.62 95.96,271.34 95.13,271.34C94.3,271.34 93.63,270.62 93.63,269.73Z" />
      <path class="ribosome" d="M82.3,276.02C82.3,275.2 83.02,274.52 83.92,274.52C84.82,274.52 85.55,275.2 85.55,276.02C85.55,276.85 84.82,277.52 83.92,277.52C83.02,277.52 82.3,276.85 82.3,276.02Z" />
      <path class="ribosome" d="M79.63,264.65C79.63,264.07 80.1,263.61 80.67,263.61C81.25,263.61 81.71,264.07 81.71,264.65C81.71,265.23 81.25,265.69 80.67,265.69C80.1,265.69 79.63,265.23 79.63,264.65Z" />
      <path class="ribosome" d="M71.88,285.48C71.88,284.82 72.36,284.27 72.96,284.27C73.55,284.27 74.04,284.82 74.04,285.48C74.04,286.15 73.55,286.69 72.96,286.69C72.36,286.69 71.88,286.15 71.88,285.48Z" />
      <path class="ribosome" d="M63.3,294.82C63.3,294.11 63.89,293.52 64.63,293.52C65.37,293.52 65.96,294.11 65.96,294.82C65.96,295.54 65.37,296.12 64.63,296.12C63.89,296.12 63.3,295.54 63.3,294.82Z" />
      <path class="ribosome" d="M57.05,296.94C57.05,296.3 57.57,295.77 58.21,295.77C58.86,295.77 59.38,296.3 59.38,296.94C59.37,297.57 58.85,298.10 58.21,298.10C57.57,298.10 57.05,297.57 57.05,296.94Z" />
      <path class="ribosome" d="M56.05,305.68C56.05,305.09 56.53,304.61 57.13,304.61C57.73,304.61 58.21,305.09 58.21,305.68C58.21,306.27 57.73,306.75 57.13,306.75C56.53,306.75 56.05,306.27 56.05,305.68Z" />
      <path class="ribosome" d="M45.55,307.52C45.55,306.83 46.09,306.27 46.76,306.27C47.42,306.27 47.96,306.83 47.96,307.52C47.96,308.22 47.42,308.77 46.76,308.77C46.09,308.77 45.55,308.22 45.55,307.52Z" />
      <path class="ribosome" d="M50.8,314.05C50.8,313.44 51.25,312.94 51.8,312.94C52.36,312.94 52.81,313.44 52.81,314.05C52.81,314.67 52.36,315.16 51.8,315.16C51.25,315.16 50.8,314.67 50.8,314.05Z" />
      <path class="ribosome" d="M44.59,319.5C44.59,318.99 45.07,318.57 45.67,318.57C46.27,318.57 46.76,318.99 46.76,319.5C46.76,320.02 46.27,320.44 45.67,320.44C45.07,320.44 44.59,320.02 44.59,319.5Z" />
      <path class="ribosome" d="M37.71,321.41C37.71,320.87 38.16,320.44 38.71,320.44C39.27,320.44 39.71,320.87 39.71,321.41C39.71,321.95 39.27,322.38 38.71,322.38C38.16,322.38 37.71,321.95 37.71,321.41Z" />
      <path class="ribosome" d="M43.84,326.94C43.84,326.53 44.29,326.19 44.85,326.19C45.4,326.19 45.85,326.53 45.85,326.94C45.85,327.36 45.4,327.7 44.85,327.7C44.29,327.7 43.84,327.36 43.84,326.94Z" />
      <path class="ribosome" d="M39.71,336.6C39.71,335.96 40.27,335.44 40.96,335.44C41.65,335.44 42.21,335.96 42.21,336.6C42.21,337.24 41.65,337.75 40.96,337.75C40.27,337.75 39.71,337.24 39.71,336.6Z" />
      <path class="ribosome" d="M40.59,345.44C40.59,344.75 41.19,344.19 41.93,344.19C42.67,344.19 43.28,344.75 43.28,345.44C43.28,346.13 42.67,346.69 41.93,346.69C41.19,346.69 40.59,346.13 40.59,345.44Z" />
      <path class="ribosome" d="M50.34,343.88C50.34,343.26 50.86,342.75 51.49,342.75C52.13,342.75 52.65,343.26 52.65,343.88C52.65,344.5 52.13,345 51.49,345C50.86,345 50.34,344.5 50.34,343.88Z" />
      <path class="ribosome" d="M46.76,347.63C46.76,347.11 47.19,346.69 47.73,346.69C48.27,346.69 48.71,347.11 48.71,347.63C48.71,348.15 48.27,348.57 47.73,348.57C47.19,348.57 46.76,348.15 46.76,347.63Z" />
      <path class="ribosome" d="M41.31,352.66C41.31,352.12 41.75,351.69 42.29,351.69C42.84,351.69 43.28,352.12 43.28,352.66C43.28,353.2 42.84,353.63 42.29,353.63C41.75,353.63 41.31,353.2 41.31,352.66Z" />
      <path class="ribosome" d="M45.85,354.1C45.85,353.56 46.35,353.13 46.97,353.13C47.58,353.13 48.08,353.56 48.08,354.1C48.08,354.63 47.58,355.06 46.97,355.06C46.35,355.06 45.85,354.63 45.85,354.1Z" />
      <path class="ribosome" d="M43.59,363.94C43.59,363.42 44.05,363 44.62,363C45.2,363 45.66,363.42 45.66,363.94C45.66,364.45 45.2,364.87 44.62,364.87C44.05,364.87 43.59,364.45 43.59,363.94Z" />
      <path class="ribosome" d="M50.34,373.52C50.34,373.02 50.8,372.61 51.37,372.61C51.94,372.61 52.4,373.02 52.4,373.52C52.4,374.03 51.94,374.44 51.37,374.44C50.8,374.44 50.34,374.03 50.34,373.52Z" />
      <path class="ribosome" d="M54.15,390C54.15,389.31 54.75,388.75 55.49,388.75C56.24,388.75 56.84,389.31 56.84,390C56.84,390.69 56.24,391.25 55.49,391.25C54.75,391.25 54.15,390.69 54.15,390Z" />
      <path class="ribosome" d="M63.36,385.89C63.36,385.23 63.93,384.7 64.63,384.7C65.33,384.7 65.9,385.23 65.9,385.89C65.9,386.54 65.33,387.07 64.63,387.07C63.93,387.07 63.36,386.54 63.36,385.89Z" />
      <path class="ribosome" d="M46.53,402.35C46.53,401.78 47.11,401.32 47.84,401.32C48.56,401.32 49.15,401.78 49.15,402.35C49.15,402.92 48.56,403.38 47.84,403.38C47.11,403.38 46.53,402.92 46.53,402.35Z" />
      <path class="ribosome" d="M60.59,396.69C60.59,396.07 61.08,395.57 61.68,395.57C62.29,395.57 62.78,396.07 62.78,396.69C62.78,397.31 62.29,397.82 61.68,397.82C61.08,397.82 60.59,397.31 60.59,396.69Z" />
      <path class="ribosome" d="M54.15,406.13C54.15,405.47 54.6,404.94 55.15,404.94C55.7,404.94 56.15,405.47 56.15,406.13C56.15,406.78 55.7,407.32 55.15,407.32C54.6,407.32 54.15,406.78 54.15,406.13Z" />
      <path class="ribosome" d="M67.84,408.97C67.84,408.27 68.48,407.69 69.28,407.69C70.07,407.69 70.71,408.27 70.71,408.97C70.71,409.68 70.07,410.25 69.28,410.25C68.48,410.25 67.84,409.68 67.84,408.97Z" />
      <path class="ribosome" d="M52.84,415.07C52.84,414.45 53.36,413.94 53.99,413.94C54.63,413.94 55.15,414.45 55.15,415.07C55.15,415.69 54.63,416.19 53.99,416.19C53.36,416.19 52.84,415.69 52.84,415.07Z" />
      <path class="ribosome" d="M56.84,420.79C56.84,420.15 57.4,419.63 58.09,419.63C58.78,419.63 59.34,420.15 59.34,420.79C59.34,421.42 58.78,421.94 58.09,421.94C57.4,421.94 56.84,421.42 56.84,420.79Z" />
      <path class="ribosome" d="M47.84,420.25C47.84,419.74 48.3,419.32 48.87,419.32C49.44,419.32 49.9,419.74 49.9,420.25C49.9,420.77 49.44,421.19 48.87,421.19C48.3,421.19 47.84,420.77 47.84,420.25Z" />
    </g>

    <g id="cell-nucleus">
      <path id="nucleus" class="nucleus" d="M76.82,414.44C88.06,433.66 114.65,468.80 183.40,449.33C204.73,443.29 230.80,417.60 221.46,375.22C215.59,348.63 192.06,306.42 152.55,302.4C137.33,300.85 100.81,296.45 76.67,338.39C64.61,359.36 64.35,393.09 76.82,414.44Z" />
      <path id="nucleolus" class="nucleolus" d="M178.88,384.27C179.95,354.3 158.33,339.67 136.94,349.15C115.54,358.63 105.21,373.17 119.54,398.9C133.88,424.63 177.88,412.25 178.88,384.27Z" />
    </g>

    <g id="Golgi-apparatus">
      <path class="golgi-apparatus" d="M42.19 222.04c3.09-1.39 5.78-9.81 5.35-12.12-.43-2.31-3.98 1.43-5.67 5.52-1.69 4.08-1.47 7.42.32 6.6Z" />
      <path class="golgi-apparatus" d="M42.65 231.20c-3.68-2.42.87-7.35 4.12-11.34 3.24-3.99 5.34-9.47 6.33-15.14.98-5.67 2.14-8.72 5.37-7.86 3.23.85 1.89 11.83-1.67 19.49-3.56 7.65-10.78 17.06-14.14 14.85Z" />
      <path class="golgi-apparatus" d="M58.44 251.18c5.17-.00 3.23-10.45 2.96-18.63-.27-8.17 2.51-16.96 7.12-26.30 4.61-9.34 6.49-14.48 1.70-18.07-2.14-1.59-9.17-1.55-7.08 5.90 2.08 7.48.35 11.99-4.16 23.35-4.51 11.35-10.05 33.74-.54 33.74Z" />
      <path class="golgi-apparatus" d="M77.35 253.22c-4.28 2.12-8.19-.32-7.45-5.62 1.00-7.13-5.77-8.07-5.09-19.99.59-10.34 8.11-20.93 11.01-29.05 1.89-5.3-1.42-6.74 2.38-10.71 3.79-3.97 11.31 2.03 7.48 6.93-3.84 4.89-11.26 9.47-14.14 25.59-2.87 16.14 1.39 18.54 6.45 23.06 5.05 4.51 1.5 8.72-.64 9.78Z" />
      <path class="golgi-apparatus" d="M82.99 240.57c5.42-.48 3.50-8.73 1.21-14.26-2.29-5.52.12-13.67 6.1-20.27 5.97-6.59 1.73-12.26-3.30-8.23-5.03 4.04-12.38 17.13-11.31 29.57 1.06 12.43 4.69 13.43 7.30 13.20Z" />
      <path class="golgi-apparatus" d="M90.23 230.77c2.74.01 4.02-2.92 2.95-6.66-1.07-3.75.88-6.02 3.28-8.77 2.40-2.75 2.36-5.52-.40-6.77-2.76-1.25-6.46 2.57-8.39 10.22-1.92 7.64.5 11.97 2.55 11.98Z" />
      <path class="golgi-apparatus" d="M73.75 183.46c2.76-2.50.28-7.02-3.31-7.26-3.58-.24-5.39 4.00-3.60 6.71 1.77 2.72 4.79 2.46 6.91.54Z" />
      <path class="golgi-apparatus" d="M58.96 186.89c-1.94-.93-4.21.82-5.18 3.46-.96 2.62 1.42 5.27 4.27 4.29 2.86-.99 4.19-6.18.90-7.76Z" />
      <path class="golgi-apparatus" d="M87.80 246.47c-3.40-.73-2.84-4.96-.30-6.31 2.53-1.36 5.14 1.15 4.81 3.30-.39 2.59-2.14 3.51-4.50 3.00Z" />
      <path class="golgi-apparatus" d="M76.55 264.51c2.43 1.14 3.79-2.87 3.17-4.78-.61-1.91-3.18-1.72-4.15-.03-.97 1.68-.43 4.16.98 4.81Z" />
      <path class="golgi-apparatus" d="M62.52 264.85c3.26 1.74 6.49-2.88 6.46-5.38-.02-2.62-1.97-6.81-5.58-4.35-3.59 2.45-3.9 8.13-.88 9.74Z" />
      <path class="golgi-apparatus" d="M44.14 245.22c2.65.56 5.29-3.18 4.96-6.02-.42-3.52-4.45-3.39-5.88-.71-1.23 2.35-.98 6.32.92 6.73Z" /> 
    </g>

    <g id="amyloplast" class="amyloplast">
      <path class="amyloplast-1" d="M383.12,472.74C394.78,461.21 401.37,437.23 389.21,426.57C379.57,418.13 352.87,430.99 343.87,456.24C334.87,481.49 360.37,495.24 383.12,472.74Z" />
      <path class="amyloplast-2" d="M376.04,473.99C388.4,464.4 396.37,438.57 384.71,432.74C373.04,426.91 359.71,441.29 353.37,455.57C345.87,472.49 355.5,489.93 376.04,473.99Z" />
      <path class="amyloplast-3" d="M374.46,470.66C381.17,464.95 392.62,443.07 384.54,438.57C376.46,434.07 364.53,446.35 360.29,455.84C354.46,468.91 359.46,483.41 374.46,470.66Z" />
      <path class="amyloplast-4" d="M366.96,469.49C363.48,468.23 364.04,458.57 371.96,449.07C378.71,440.97 384.96,442.32 381.62,453.24C378.29,464.16 371.54,471.16 366.96,469.49Z" />
      <path class="amyloplast-5" d="M376.12,460.87C378.88,456.7 379.94,452.99 378.19,452.3C376.44,451.62 371.61,456.3 370.62,461.68C369.62,467.05 373.19,465.3 376.12,460.87Z" />
    </g>
    
    <g id="mitochondrion-1" class="mitochondria">
      <path class="mitochondrion-membrane" d="M279.42 125.96c-10.42-6.42-.39-18.22 5.81-28.47 6.2-10.25 4.32-18.22 5.71-26.54 2-12 19.24-20.6 25.54-1.11 4.5 13.92-.98 34.77-10.77 46.87-7.62 9.42-18.22 14.24-26.29 9.25Z" />
      <path class="mitochondrion-cristae" d="M304.22 70.28c-1.89-.88-4.25-.75-4.5-2.88-.25-2.12 9.72-4.8 13.4 2.88 1.97 4.12.47 6.56-4.34 6.62-4.81.06-1.87 1.44 1.06 2.19 2.94.75 4.88 2.44 3.75 4.44-.73 1.3-3.09 1.25-5.32 1.2-2.09-.04-4.06-.09-4.49.98-.52 1.32 1.56 2.02 4.31 3.23 2.75 1.21 3.75 3.25 2.59 6.04-1.17 2.8-5.75 1.3-8.46 0-2.71-1.29-4.79-1.37-4.96-.08-.17 1.29 2.04 2.38 4.46 3 2.42.63 6.29 1.29 6.71 3.21.41 1.92-2.8 3.54-7.13 1.54s-6.79-2.5-7.37-1c-.59 1.5.54 3.5 4.83 4.67 4.29 1.16 6.08 2.12 5.67 4.29-.42 2.17-6.28.47-9.42-.83-2.74-1.15-4.75-.96-5-.17-.25.79.83 2.58 4.42 3.71 3.58 1.12 5.12 5.58-1.34 7.66-6.45 2.09-12-.2-11.5-4.58.31-2.66 3-3.33 5.96-1.42 3.63 2.35 6.5 1.46 3.21-.79s-6.38-4.5-5.33-7.29c.52-1.4 3.34-.99 5.55-.59 2.18.41 3.77.81 1.95-.53-3.67-2.71-5.59-4.63-4.13-7.17.68-1.19 2.82-1.01 4.5-.83 1.92.2 3.26.4 1.17-1.42-3.92-3.42-2.29-7.46.25-7.04 2.54.41 10.96 5.58 11.75 3.41.79-2.16-4.88-3.29-8.21-4.7-3.33-1.42-3.62-3.09-2.87-4.55.57-1.11 3.07-1.06 5.36-1.01.71.02 1.41.03 2.01.01 2.54-.08 4.21-.29-.04-1.79s-7-3.29-6.38-5.66c.33-1.26 2.93-.98 5.45-.7 2.26.25 4.46.5 4.93-.35 1-1.79-1.33-3.16-2.5-3.7Z" />
    </g>

    <g id="mitochondrion-2" class="mitochondria">
      <path class="mitochondrion-membrane" d="M362.22 366.78c8.64 5.00.32 14.21-4.82 22.20-5.14 7.99-3.58 14.21-4.74 20.7-1.66 9.36-15.96 16.06-21.19.86-3.73-10.85.81-27.12 8.94-36.55 6.32-7.34 15.12-11.10 21.82-7.21Z" />
      <path class="mitochondrion-cristae" d="M341.63 410.21c1.56.68 3.52.58 3.73 2.24.20 1.65-8.06 3.74-11.12-2.24-1.63-3.21-.39-5.11 3.60-5.16 3.99-.04 1.55-1.12-.88-1.70-2.44-.58-4.05-1.90-3.11-3.46.60-1.01 2.56-.97 4.41-.93 1.73.03 3.37.07 3.72-.76.43-1.03-1.29-1.57-3.57-2.52-2.28-.94-3.11-2.53-2.15-4.71.97-2.18 4.77-1.01 7.02 0 2.25 1.00 3.97 1.06 4.11.06.14-1.00-1.69-1.85-3.70-2.34-2.01-.49-5.22-1.00-5.57-2.50-.34-1.49 2.32-2.76 5.91-1.20 3.59 1.56 5.63 1.95 6.11.78.49-1.17-.44-2.73-4.00-3.64-3.56-.90-5.04-1.65-4.70-3.34.34-1.69 5.21-.36 7.81.64 2.27.89 3.94.74 4.15.13.20-.61-.69-2.01-3.66-2.89-2.97-.87-4.25-4.35 1.11-5.97 5.35-1.63 9.96.15 9.54 3.57-.25 2.07-2.49 2.59-4.94 1.10-3.01-1.83-5.39-1.13-2.66.61 2.73 1.75 5.29 3.51 4.42 5.68-.43 1.09-2.77.77-4.60.46-1.81-.32-3.13-.63-1.61.41 3.04 2.11 4.64 3.61 3.42 5.59-.56.92-2.34.78-3.73.64-1.59-.15-2.70-.31-.97 1.10 3.25 2.66 1.9 5.81-.20 5.49-2.10-.31-9.09-4.35-9.75-2.65-.65 1.68 4.05 2.56 6.81 3.66 2.76 1.10 3.00 2.41 2.38 3.54-.47.86-2.54.82-4.44.78-.59-.01-1.17-.02-1.66-.00-2.10.06-3.49.22.03 1.39 3.52 1.17 5.81 2.56 5.29 4.41-.27.98-2.43.76-4.52.54-1.87-.19-3.70-.39-4.09.27-.83 1.39 1.10 2.46 2.07 2.88Z" />
    </g>

    <g id="chloroplast-1" class="chloroplast">
      <path class="chloroplast-membrane" d="M334.54,224.82C353.32,227.74 360.6,184.35 356.92,171.99C353.75,161.35 340.31,159.6 332.47,176.57C324.62,193.54 321.59,222.8 334.54,224.82Z" />
      <g class="grana">
        <g class="granum">
          <path class="thylakoid-1" d="M347.82,215.86C349.08,216 349.93,211.65 349.78,210.46C349.65,209.43 348.75,209.36 348.07,211.11C347.39,212.85 346.95,215.77 347.82,215.86Z" />
          <path class="thylakoid-2" d="M345.83,215.84C347.1,215.95 348.12,210.97 348.01,209.61C347.91,208.45 347,208.41 346.26,210.42C345.51,212.42 344.96,215.76 345.83,215.84Z" />
          <path class="thylakoid-1" d="M344.45,214.48C345.37,214.56 346.11,210.93 346.03,209.94C345.97,209.09 345.3,209.06 344.76,210.53C344.22,211.99 343.81,214.42 344.45,214.48Z" />
          <path class="thylakoid-2" d="M342.81,214.64C343.93,214.74 344.83,210.33 344.73,209.14C344.65,208.11 343.84,208.07 343.18,209.85C342.52,211.62 342.03,214.58 342.81,214.64Z" />
          <path class="thylakoid-1" d="M340.94,214.62C342.21,214.73 343.23,209.72 343.12,208.37C343.03,207.2 342.11,207.16 341.37,209.17C340.62,211.19 340.06,214.54 340.94,214.62Z" />
          <path class="thylakoid-2" d="M339.2,213.59C340.27,213.68 341.13,209.47 341.04,208.32C340.96,207.34 340.18,207.3 339.56,209C338.93,210.7 338.46,213.52 339.2,213.59Z" />
          <path class="thylakoid-1" d="M337.44,213.51C338.64,213.61 339.6,208.91 339.49,207.63C339.4,206.53 338.54,206.49 337.84,208.39C337.13,210.29 336.61,213.44 337.44,213.51Z" />
          <path class="thylakoid-2" d="M335.58,213.41C336.78,213.51 337.74,208.81 337.64,207.53C337.55,206.43 336.69,206.39 335.98,208.29C335.28,210.18 334.76,213.34 335.58,213.41Z" />
          <path class="thylakoid-1" d="M333.91,212.62C335.1,212.72 336.06,208.01 335.96,206.74C335.87,205.63 335.01,205.6 334.31,207.5C333.6,209.39 333.08,212.54 333.91,212.62Z" />
          <path class="thylakoid-2" d="M332.22,211.81C333.17,211.89 333.92,208.19 333.84,207.18C333.77,206.31 333.09,206.29 332.54,207.78C331.99,209.27 331.57,211.75 332.22,211.81Z" />
          <path class="thylakoid-1" d="M331.01,210.75C331.96,210.84 332.71,207.13 332.63,206.13C332.56,205.26 331.88,205.23 331.33,206.72C330.77,208.22 330.36,210.7 331.01,210.75Z" />
          <path class="thylakoid-2" d="M329.3,211.36C330.35,211.45 331.18,207.36 331.09,206.25C331.01,205.29 330.26,205.26 329.65,206.91C329.04,208.56 328.58,211.3 329.3,211.36Z" />
          <path class="thylakoid-1" d="M327.76,210.97C328.81,211.07 329.64,206.97 329.55,205.86C329.47,204.9 328.72,204.87 328.11,206.52C327.5,208.17 327.04,210.91 327.76,210.97Z" />
          <path class="thylakoid-2" d="M326.5,209.6C327.45,209.68 328.2,205.97 328.12,204.96C328.05,204.09 327.37,204.06 326.81,205.56C326.26,207.05 325.85,209.54 326.5,209.6Z" />
        </g>
        <g class="granum">
          <path class="thylakoid-1" d="M327.42,198.05C326.04,197.48 327.59,192.5 328.41,191.35C329.12,190.36 330.09,190.8 329.82,192.99C329.54,195.17 328.37,198.44 327.42,198.05Z" />
          <path class="thylakoid-2" d="M329.39,199.75C328.01,199.15 329.75,193.42 330.62,192.08C331.37,190.93 332.34,191.4 331.98,193.9C331.63,196.39 330.34,200.16 329.39,199.75Z" />
          <path class="thylakoid-1" d="M331.56,199.45C330.56,199.02 331.83,194.84 332.46,193.87C333.01,193.02 333.71,193.37 333.45,195.19C333.2,197.01 332.25,199.75 331.56,199.45Z" />
          <path class="thylakoid-2" d="M333.19,200.2C331.97,199.67 333.51,194.61 334.28,193.42C334.94,192.4 335.8,192.82 335.48,195.03C335.17,197.23 334.03,200.56 333.19,200.2Z" />
          <path class="thylakoid-1" d="M335.14,201.22C333.76,200.62 335.5,194.87 336.38,193.52C337.13,192.36 338.1,192.84 337.74,195.34C337.39,197.85 336.09,201.63 335.14,201.22Z" />
          <path class="thylakoid-2" d="M337.59,200.75C336.43,200.24 337.89,195.4 338.63,194.27C339.27,193.29 340.08,193.69 339.79,195.8C339.49,197.91 338.39,201.09 337.59,200.75Z" />
          <path class="thylakoid-1" d="M339.38,202.03C338.08,201.47 339.72,196.06 340.55,194.8C341.25,193.7 342.17,194.15 341.83,196.5C341.5,198.86 340.28,202.42 339.38,202.03Z" />
          <path class="thylakoid-2" d="M341.32,203.4C340.02,202.84 341.66,197.43 342.48,196.17C343.19,195.08 344.1,195.52 343.77,197.88C343.44,200.24 342.21,203.79 341.32,203.4Z" />
          <path class="thylakoid-1" d="M343.54,203.08C342.24,202.52 343.88,197.11 344.7,195.84C345.41,194.75 346.32,195.2 345.99,197.56C345.66,199.91 344.44,203.47 343.54,203.08Z" />
          <path class="thylakoid-2" d="M345.73,203.19C344.71,202.75 346,198.49 346.65,197.49C347.21,196.63 347.93,196.98 347.66,198.84C347.4,200.69 346.44,203.49 345.73,203.19Z" />
          <path class="thylakoid-1" d="M347.39,203.27C346.37,202.83 347.66,198.57 348.3,197.58C348.86,196.72 349.58,197.07 349.32,198.92C349.06,200.78 348.09,203.58 347.39,203.27Z" />
          <path class="thylakoid-2" d="M349.01,204.36C347.88,203.87 349.31,199.16 350.02,198.06C350.64,197.11 351.43,197.5 351.14,199.55C350.85,201.6 349.79,204.7 349.01,204.36Z" />
          <path class="thylakoid-1" d="M350.92,204.31C349.79,203.82 351.21,199.11 351.93,198.01C352.55,197.06 353.34,197.45 353.05,199.5C352.76,201.55 351.7,204.64 350.92,204.31Z" />
          <path class="thylakoid-2" d="M352.70,204.83C351.57,204.34 353.00,199.63 353.71,198.53C354.33,197.58 355.12,197.97 354.83,200.02C354.54,202.07 353.48,205.17 352.70,204.83Z" />
        </g>
        <g class="granum">
          <path class="thylakoid-2" d="M331.15,185.32C330.16,184.92 331.27,180.82 331.86,179.86C332.36,179.02 333.06,179.33 332.86,181.11C332.67,182.89 331.83,185.59 331.15,185.32Z" />
          <path class="thylakoid-1" d="M332.89,186.98C331.56,186.45 333.05,180.94 333.84,179.64C334.52,178.52 335.46,178.94 335.19,181.33C334.93,183.72 333.81,187.34 332.89,186.98Z" />
          <path class="thylakoid-2" d="M334.96,186.32C334,185.93 335.08,181.91 335.66,180.96C336.15,180.14 336.84,180.45 336.64,182.19C336.45,183.93 335.63,186.58 334.96,186.32Z" />
          <path class="thylakoid-1" d="M336.53,187.31C335.35,186.84 336.67,181.96 337.37,180.81C337.97,179.82 338.8,180.19 338.57,182.3C338.33,184.42 337.34,187.63 336.53,187.31Z" />
          <path class="thylakoid-2" d="M338.42,188.22C337.08,187.69 338.58,182.15 339.37,180.84C340.06,179.72 341,180.14 340.73,182.54C340.47,184.94 339.34,188.58 338.42,188.22Z" />
          <path class="thylakoid-1" d="M340.69,188.06C339.56,187.61 340.82,182.95 341.49,181.85C342.07,180.9 342.86,181.25 342.64,183.28C342.41,185.3 341.46,188.37 340.69,188.06Z" />
          <path class="thylakoid-2" d="M342.49,188.87C341.23,188.37 342.64,183.16 343.39,181.93C344.03,180.87 344.91,181.27 344.67,183.52C344.42,185.79 343.36,189.21 342.49,188.87Z" />
          <path class="thylakoid-1" d="M344.4,189.7C343.15,189.2 344.55,183.99 345.3,182.76C345.94,181.7 346.83,182.1 346.58,184.36C346.33,186.62 345.27,190.04 344.4,189.7Z" />
          <path class="thylakoid-2" d="M346.49,189.75C345.23,189.25 346.64,184.05 347.38,182.81C348.03,181.75 348.91,182.15 348.66,184.41C348.41,186.66 347.35,190.09 346.49,189.75Z" />
          <path class="thylakoid-1" d="M348.58,189.79C347.59,189.4 348.7,185.29 349.29,184.32C349.79,183.49 350.49,183.8 350.29,185.58C350.1,187.36 349.26,190.06 348.58,189.79Z" />
          <path class="thylakoid-2" d="M350.33,189.34C349.34,188.94 350.45,184.84 351.04,183.88C351.54,183.04 352.24,183.35 352.04,185.13C351.85,186.91 351.01,189.61 350.33,189.34Z" />
          <path class="thylakoid-1" d="M351.74,190.81C350.65,190.37 351.87,185.84 352.52,184.77C353.08,183.84 353.85,184.19 353.63,186.16C353.42,188.12 352.49,191.11 351.74,190.81Z" />
          <path class="thylakoid-2" d="M353.48,191.19C352.39,190.76 353.61,186.23 354.26,185.15C354.82,184.23 355.59,184.58 355.37,186.54C355.16,188.51 354.23,191.49 353.48,191.19Z" />
          <path class="thylakoid-1" d="M355.29,190.86C354.3,190.47 355.41,186.36 356,185.39C356.51,184.55 357.21,184.86 357.01,186.65C356.81,188.43 355.98,191.13 355.29,190.86Z" />
        </g>
        <g class="granum">
          <path class="thylakoid-2" d="M355.22,180.36C356.37,180.45 357.1,176.33 356.96,175.21C356.83,174.25 356.01,174.21 355.41,175.87C354.81,177.53 354.43,180.29 355.22,180.36Z" />
          <path class="thylakoid-1" d="M353.56,179.99C354.71,180.05 355.59,175.34 355.48,174.07C355.38,172.97 354.55,172.96 353.9,174.87C353.24,176.78 352.77,179.94 353.56,179.99Z" />
          <path class="thylakoid-2" d="M352.3,178.75C353.13,178.79 353.77,175.35 353.69,174.43C353.62,173.63 353.02,173.62 352.54,175.01C352.06,176.41 351.72,178.71 352.3,178.75Z" />
          <path class="thylakoid-1" d="M350.81,178.94C351.83,179.01 352.6,174.83 352.5,173.71C352.42,172.74 351.69,172.73 351.11,174.42C350.53,176.11 350.11,178.9 350.81,178.94Z" />
          <path class="thylakoid-2" d="M349.12,178.97C350.27,179.04 351.15,174.3 351.04,173.02C350.94,171.92 350.11,171.91 349.45,173.83C348.79,175.75 348.32,178.92 349.12,178.97Z" />
          <path class="thylakoid-1" d="M347.53,178.05C348.5,178.11 349.24,174.11 349.15,173.04C349.07,172.11 348.37,172.1 347.81,173.72C347.26,175.34 346.86,178.01 347.53,178.05Z" />
          <path class="thylakoid-2" d="M345.94,178.02C347.02,178.09 347.85,173.63 347.74,172.43C347.65,171.4 346.87,171.39 346.25,173.19C345.63,174.99 345.19,177.98 345.94,178.02Z" />
          <path class="thylakoid-1" d="M344.26,177.98C345.34,178.04 346.17,173.59 346.06,172.39C345.97,171.35 345.19,171.34 344.57,173.15C343.95,174.95 343.51,177.93 344.26,177.98Z" />
          <path class="thylakoid-2" d="M342.73,177.28C343.81,177.34 344.64,172.89 344.53,171.69C344.45,170.65 343.66,170.64 343.04,172.44C342.42,174.25 341.98,177.23 342.73,177.28Z" />
          <path class="thylakoid-1" d="M341.2,176.57C342.05,176.62 342.7,173.11 342.62,172.16C342.55,171.35 341.93,171.34 341.45,172.76C340.96,174.18 340.61,176.53 341.2,176.57Z" />
          <path class="thylakoid-2" d="M340.09,175.61C340.94,175.65 341.6,172.14 341.51,171.2C341.44,170.39 340.83,170.38 340.34,171.8C339.85,173.22 339.5,175.57 340.09,175.61Z" />
          <path class="thylakoid-1" d="M338.55,176.22C339.49,176.28 340.21,172.4 340.12,171.36C340.04,170.46 339.36,170.45 338.82,172.02C338.28,173.59 337.89,176.19 338.55,176.22Z" />
          <path class="thylakoid-2" d="M337.15,175.9C338.09,175.96 338.81,172.08 338.72,171.03C338.64,170.13 337.96,170.12 337.42,171.69C336.88,173.26 336.5,175.86 337.15,175.9Z" />
          <path class="thylakoid-1" d="M335.82,175.56C336.67,175.61 337.33,172.09 337.24,171.15C337.17,170.33 336.55,170.32 336.07,171.75C335.58,173.17 335.23,175.52 335.82,175.56Z" />
        </g>
      </g>
    </g>

    <g id="chloroplast-2" class="chloroplast">
      <path class="chloroplast-membrane" d="M315.96,482.41C330.04,469.78 301.21,436.84 289.38,431.89C279.19,427.63 269.37,436.87 277.50,453.60C285.62,470.34 306.24,491.10 315.96,482.40L315.96,482.41Z" />
      <g class="grana">
        <g class="granum">
          <path class="thylakoid-1" d="M317.43,466.53C318.33,465.65 315.51,462.26 314.50,461.62C313.63,461.07 313.01,461.72 313.92,463.35C314.84,464.97 316.81,467.15 317.42,466.53L317.43,466.53Z" />
          <path class="thylakoid-2" d="M316.16,468.05C317.04,467.15 313.85,463.22 312.73,462.45C311.78,461.80 311.17,462.47 312.25,464.31C313.32,466.15 315.55,468.67 316.16,468.05Z" />
          <path class="thylakoid-1" d="M314.24,468.26C314.88,467.60 312.55,464.75 311.74,464.18C311.05,463.69 310.60,464.19 311.39,465.53C312.18,466.87 313.79,468.71 314.24,468.26Z" />
          <path class="thylakoid-2" d="M313.33,469.62C314.11,468.82 311.28,465.35 310.30,464.68C309.46,464.09 308.92,464.69 309.87,466.32C310.82,467.94 312.79,470.19 313.33,469.62Z" />
          <path class="thylakoid-1" d="M312.14,471.05C313.02,470.14 309.81,466.20 308.70,465.43C307.74,464.77 307.13,465.45 308.21,467.29C309.29,469.14 311.52,471.68 312.14,471.05Z" />
          <path class="thylakoid-2" d="M310.25,471.74C310.99,470.97 308.29,467.66 307.35,467.00C306.54,466.45 306.02,467.02 306.94,468.57C307.85,470.13 309.73,472.27 310.25,471.74L310.25,471.74Z" />
          <path class="thylakoid-1" d="M309.08,473.05C309.91,472.19 306.9,468.49 305.84,467.76C304.94,467.14 304.36,467.78 305.39,469.51C306.40,471.26 308.50,473.64 309.08,473.05Z" />
          <path class="thylakoid-2" d="M307.83,474.42C308.66,473.56 305.65,469.85 304.60,469.13C303.69,468.50 303.12,469.14 304.14,470.88C305.15,472.61 307.26,475.00 307.83,474.42Z" />
          <path class="thylakoid-1" d="M306.17,475.20C306.99,474.35 303.97,470.64 302.93,469.92C302.02,469.29 301.45,469.93 302.48,471.67C303.48,473.41 305.58,475.79 306.17,475.20Z" />
          <path class="thylakoid-2" d="M304.48,476C305.14,475.31 302.76,472.41 301.93,471.83C301.22,471.34 300.78,471.85 301.58,473.21C302.38,474.57 304.02,476.46 304.48,475.99L304.48,476Z" />
          <path class="thylakoid-1" d="M302.90,476.26C303.57,475.58 301.18,472.67 300.36,472.10C299.65,471.61 299.20,472.11 300.00,473.47C300.80,474.85 302.45,476.73 302.90,476.26Z" />
          <path class="thylakoid-2" d="M302.29,477.96C303.02,477.21 300.40,473.99 299.49,473.36C298.7,472.82 298.20,473.38 299.09,474.89C299.97,476.40 301.79,478.48 302.29,477.96Z" />
          <path class="thylakoid-1" d="M301.02,478.90C301.76,478.15 299.13,474.93 298.21,474.30C297.42,473.76 296.93,474.32 297.82,475.83C298.70,477.34 300.52,479.42 301.02,478.90Z" />
          <path class="thylakoid-2" d="M299.17,479.01C299.83,478.33 297.45,475.41 296.62,474.84C295.91,474.34 295.46,474.85 296.26,476.22C297.06,477.59 298.72,479.47 299.17,479.01Z" />
        </g>
        <g class="granum">
          <path class="thylakoid-1" d="M290.86,471.02C289.55,471.73 286.69,467.4 286.32,466.04C286.01,464.87 286.96,464.40 288.47,465.99C289.98,467.58 291.76,470.54 290.86,471.02Z" />
          <path class="thylakoid-2" d="M293.41,470.58C292.08,471.26 288.76,466.31 288.28,464.80C287.87,463.5 288.84,463.04 290.54,464.90C292.23,466.73 294.32,470.10 293.41,470.58L293.41,470.58Z" />
          <path class="thylakoid-1" d="M294.55,468.72C293.59,469.22 291.17,465.60 290.82,464.51C290.51,463.55 291.22,463.23 292.46,464.58C293.70,465.92 295.21,468.37 294.55,468.72L294.55,468.72Z" />
          <path class="thylakoid-2" d="M296.15,467.93C294.97,468.54 292.05,464.17 291.62,462.82C291.25,461.67 292.11,461.27 293.61,462.91C295.11,464.54 296.96,467.51 296.15,467.93Z" />
          <path class="thylakoid-1" d="M298.16,467.08C296.83,467.76 293.50,462.80 293.02,461.27C292.6,459.96 293.58,459.52 295.27,461.37C296.99,463.22 299.08,466.60 298.16,467.07L298.16,467.08Z" />
          <path class="thylakoid-2" d="M300.72,467.16C299.59,467.73 296.77,463.54 296.36,462.25C296.01,461.14 296.83,460.76 298.28,462.32C299.72,463.89 301.49,466.76 300.72,467.16Z" />
          <path class="thylakoid-1" d="M301.46,464.32C300.21,464.97 297.08,460.30 296.63,458.86C296.22,457.63 297.15,457.21 298.74,458.95C300.35,460.69 302.33,463.87 301.46,464.32L301.46,464.32Z" />
          <path class="thylakoid-2" d="M303.74,463.69C302.49,464.34 299.35,459.67 298.90,458.24C298.51,457.01 299.42,456.58 301.03,458.33C302.64,460.07 304.60,463.25 303.74,463.69L303.74,463.69Z" />
          <path class="thylakoid-1" d="M304.89,461.78C303.64,462.43 300.51,457.76 300.04,456.32C299.65,455.09 300.57,454.67 302.18,456.41C303.78,458.15 305.76,461.33 304.89,461.78Z" />
          <path class="thylakoid-2" d="M306.35,460.16C305.37,460.67 302.90,456.99 302.54,455.86C302.23,454.89 302.96,454.56 304.22,455.94C305.48,457.30 307.03,459.80 306.35,460.16Z" />
          <path class="thylakoid-1" d="M308.88,461.17C307.89,461.68 305.41,457.99 305.05,456.86C304.74,455.89 305.47,455.55 306.74,456.92C308.01,458.30 309.56,460.83 308.88,461.17Z" />
          <path class="thylakoid-2" d="M309.32,458.37C308.23,458.93 305.50,454.87 305.10,453.63C304.76,452.55 305.56,452.19 306.96,453.70C308.35,455.22 310.07,457.99 309.32,458.37L309.32,458.37Z" />
          <path class="thylakoid-1" d="M310.48,456.87C309.39,457.43 306.66,453.37 306.27,452.12C305.93,451.05 306.73,450.69 308.12,452.20C309.52,453.72 311.23,456.48 310.48,456.87L310.48,456.87Z" />
          <path class="thylakoid-2" d="M311.64,455.68C310.48,456.26 307.59,452.09 307.17,450.82C306.81,449.72 307.65,449.34 309.14,450.90C310.62,452.45 312.43,455.29 311.64,455.68L311.64,455.68Z" />
        </g>
        <g class="granum">
          <path class="thylakoid-1" d="M285.78,459.84C284.54,460.53 281.23,455.91 280.73,454.48C280.29,453.25 281.21,452.79 282.88,454.51C284.56,456.21 286.64,459.35 285.78,459.84Z" />
          <path class="thylakoid-2" d="M286.58,457.83C285.67,458.32 283.26,454.96 282.89,453.91C282.57,453.02 283.24,452.68 284.46,453.93C285.68,455.17 287.20,457.47 286.58,457.83L286.58,457.83Z" />
          <path class="thylakoid-1" d="M288.33,457.24C287.22,457.85 284.30,453.76 283.85,452.50C283.47,451.41 284.28,451.01 285.76,452.51C287.24,454.03 289.09,456.82 288.33,457.24Z" />
          <path class="thylakoid-2" d="M290.22,456.36C288.97,457.06 285.65,452.41 285.14,450.98C284.71,449.74 285.62,449.28 287.30,451.00C288.99,452.71 291.08,455.88 290.22,456.36Z" />
          <path class="thylakoid-1" d="M291.53,454.51C290.47,455.10 287.67,451.19 287.25,449.98C286.88,448.94 287.65,448.55 289.07,450.00C290.48,451.45 292.25,454.11 291.53,454.51Z" />
          <path class="thylakoid-2" d="M293.29,453.64C292.11,454.29 288.98,449.92 288.51,448.57C288.09,447.41 288.96,446.98 290.54,448.59C292.13,450.21 294.09,453.18 293.28,453.64L293.29,453.64Z" />
          <path class="thylakoid-1" d="M295.13,452.69C293.95,453.33 290.82,448.97 290.35,447.62C289.94,446.46 290.81,446.03 292.39,447.64C293.97,449.26 295.94,452.23 295.13,452.69Z" />
          <path class="thylakoid-2" d="M296.48,451.11C295.30,451.76 292.19,447.40 291.70,446.05C291.29,444.88 292.15,444.46 293.74,446.07C295.31,447.68 297.29,450.66 296.48,451.11Z" />
          <path class="thylakoid-1" d="M297.83,449.53C296.91,450.04 294.44,446.60 294.07,445.53C293.74,444.62 294.42,444.28 295.67,445.56C296.92,446.82 298.47,449.17 297.83,449.53Z" />
          <path class="thylakoid-2" d="M298.59,447.89C297.65,448.40 295.2,444.97 294.83,443.91C294.50,442.99 295.18,442.65 296.42,443.93C297.67,445.19 299.22,447.54 298.59,447.89Z" />
          <path class="thylakoid-2" d="M284.05,460.81C283.03,461.35 280.34,457.75 279.94,456.65C279.57,455.69 280.32,455.33 281.68,456.67C283.05,457.99 284.74,460.44 284.05,460.81Z" />
          <path class="thylakoid-1" d="M300.61,447.73C299.58,448.30 296.86,444.50 296.45,443.33C296.08,442.31 296.84,441.94 298.22,443.35C299.59,444.75 301.31,447.35 300.61,447.73L300.61,447.73Z" />
          <path class="thylakoid-2" d="M302,446.63C300.98,447.20 298.26,443.41 297.84,442.23C297.48,441.22 298.23,440.85 299.61,442.25C300.99,443.65 302.70,446.25 302,446.63Z" />
          <path class="thylakoid-1" d="M302.88,445.03C301.96,445.55 299.49,442.11 299.12,441.04C298.79,440.12 299.47,439.77 300.72,441.06C301.97,442.33 303.52,444.67 302.88,445.03Z" />
        </g>
        <g class="granum">
          <path class="thylakoid-2" d="M294.75,438.47C295.55,437.64 292.83,434.48 291.88,433.89C291.06,433.38 290.51,433.99 291.41,435.50C292.31,437.00 294.20,439.04 294.75,438.47Z" />
          <path class="thylakoid-1" d="M293.42,439.52C294.19,438.67 291.12,435.02 290.07,434.31C289.16,433.69 288.63,434.33 289.69,436.03C290.75,437.74 292.88,440.09 293.42,439.52Z" />
          <path class="thylakoid-2" d="M291.67,439.71C292.23,439.09 289.98,436.43 289.22,435.91C288.56,435.46 288.18,435.92 288.94,437.16C289.72,438.42 291.28,440.13 291.67,439.71Z" />
          <path class="thylakoid-1" d="M290.88,440.97C291.58,440.23 288.84,437.00 287.92,436.38C287.12,435.83 286.65,436.38 287.59,437.89C288.52,439.41 290.41,441.49 290.88,440.97Z" />
          <path class="thylakoid-2" d="M289.84,442.29C290.62,441.45 287.52,437.79 286.47,437.07C285.56,436.45 285.03,437.08 286.09,438.80C287.15,440.52 289.3,442.88 289.84,442.29Z" />
          <path class="thylakoid-1" d="M288.13,442.94C288.79,442.23 286.17,439.14 285.29,438.53C284.52,438.01 284.08,438.54 284.97,439.99C285.87,441.44 287.68,443.43 288.13,442.94Z" />
          <path class="thylakoid-2" d="M287.10,444.14C287.84,443.36 284.93,439.91 283.93,439.24C283.08,438.66 282.58,439.25 283.58,440.86C284.58,442.47 286.60,444.7 287.10,444.14Z" />
          <path class="thylakoid-1" d="M286.01,445.41C286.74,444.62 283.84,441.17 282.84,440.50C281.99,439.92 281.49,440.51 282.49,442.13C283.49,443.74 285.50,445.96 286.01,445.41Z" />
          <path class="thylakoid-2" d="M284.51,446.15C285.24,445.35 282.33,441.91 281.34,441.24C280.49,440.65 279.98,441.25 280.98,442.86C281.98,444.48 284.00,446.69 284.51,446.15Z" />
          <path class="thylakoid-1" d="M283.00,446.88C283.57,446.26 281.28,443.54 280.50,443.01C279.83,442.55 279.43,443.02 280.22,444.29C281.01,445.56 282.60,447.31 283.00,446.88Z" />
          <path class="thylakoid-2" d="M281.56,447.13C282.13,446.50 279.84,443.78 279.06,443.26C278.39,442.80 278.00,443.26 278.79,444.54C279.57,445.81 281.16,447.56 281.56,447.13Z" />
          <path class="thylakoid-1" d="M281.06,448.70C281.70,448.01 279.17,445.01 278.31,444.43C277.57,443.92 277.13,444.44 278.00,445.85C278.87,447.25 280.62,449.19 281.06,448.70Z" />
          <path class="thylakoid-2" d="M279.93,449.58C280.57,448.89 278.04,445.89 277.17,445.30C276.43,444.79 275.99,445.31 276.86,446.72C277.73,448.12 279.49,450.05 279.93,449.58Z" />
          <path class="thylakoid-1" d="M278.83,450.39C279.41,449.76 277.11,447.04 276.33,446.51C275.66,446.05 275.26,446.52 276.06,447.79C276.84,449.06 278.43,450.81 278.83,450.39Z" />
        </g>
      </g>
    </g>

    <g id="chloroplast-3" class="chloroplast">
      <path class="chloroplast-membrane" d="M80.27,133.91C97.14,125.59 78.34,86.30 68.32,78.38C59.70,71.57 47.82,77.80 51.13,96.01C54.43,114.22 68.63,139.65 80.27,133.91Z" />
      <g class="grana">
        <g class="granum">
          <path class="thylakoid-1" d="M85.93,119.09C87.03,118.49 85.24,114.48 84.44,113.60C83.75,112.84 82.98,113.30 83.43,115.10C83.87,116.90 85.17,119.52 85.93,119.09Z" />
          <path class="thylakoid-2" d="M84.30,120.21C85.4,119.58 83.39,114.96 82.52,113.92C81.78,113.04 81.02,113.53 81.57,115.58C82.10,117.62 83.55,120.64 84.30,120.21Z" />
          <path class="thylakoid-1" d="M82.41,119.9C83.20,119.44 81.74,116.08 81.11,115.32C80.57,114.66 80.02,115.02 80.41,116.52C80.81,118.01 81.86,120.21 82.41,119.9Z" />
          <path class="thylakoid-2" d="M81.18,120.96C82.14,120.40 80.36,116.32 79.60,115.41C78.95,114.62 78.27,115.05 78.75,116.87C79.22,118.68 80.51,121.35 81.17,120.96L81.18,120.96Z" />
          <path class="thylakoid-1" d="M79.65,122.01C80.74,121.37 78.71,116.73 77.86,115.70C77.12,114.81 76.35,115.30 76.89,117.35C77.44,119.41 78.89,122.44 79.65,122.01Z" />
          <path class="thylakoid-2" d="M77.65,122.16C78.57,121.63 76.87,117.73 76.14,116.85C75.52,116.10 74.87,116.51 75.33,118.24C75.79,119.98 77.01,122.53 77.65,122.16Z" />
          <path class="thylakoid-1" d="M76.18,123.10C77.21,122.50 75.31,118.14 74.5,117.17C73.8,116.33 73.08,116.79 73.59,118.73C74.10,120.67 75.47,123.52 76.18,123.10Z" />
          <path class="thylakoid-2" d="M74.62,124.08C75.65,123.48 73.75,119.12 72.94,118.14C72.24,117.30 71.52,117.76 72.03,119.70C72.54,121.63 73.91,124.49 74.62,124.08L74.62,124.08Z" />
          <path class="thylakoid-1" d="M72.82,124.39C73.84,123.79 71.93,119.43 71.13,118.46C70.42,117.61 69.71,118.08 70.23,120.01C70.73,121.95 72.10,124.80 72.82,124.39Z" />
          <path class="thylakoid-2" d="M70.99,124.69C71.80,124.22 70.30,120.79 69.66,120.02C69.11,119.36 68.55,119.73 68.95,121.25C69.35,122.77 70.43,125.02 70.99,124.69L70.99,124.69Z" />
          <path class="thylakoid-1" d="M69.40,124.53C70.22,124.06 68.72,120.63 68.08,119.86C67.53,119.2 66.96,119.56 67.37,121.08C67.77,122.61 68.85,124.85 69.40,124.52L69.40,124.53Z" />
          <path class="thylakoid-2" d="M68.37,125.99C69.27,125.47 67.61,121.68 66.91,120.83C66.29,120.10 65.67,120.50 66.12,122.19C66.56,123.87 67.75,126.35 68.37,125.99Z" />
          <path class="thylakoid-1" d="M66.9,126.55C67.80,126.04 66.14,122.24 65.44,121.4C64.83,120.66 64.20,121.07 64.65,122.75C65.09,124.43 66.28,126.91 66.9,126.55Z" />
          <path class="thylakoid-2" d="M65.1,126.16C65.91,125.68 64.41,122.25 63.77,121.48C63.21,120.82 62.65,121.18 63.05,122.71C63.45,124.23 64.53,126.48 65.1,126.16Z" />
        </g>
        <g class="granum">
          <path class="thylakoid-1" d="M59.26,116.28C57.82,116.61 56.24,111.69 56.25,110.29C56.26,109.09 57.30,108.89 58.33,110.82C59.34,112.74 60.25,116.06 59.26,116.28Z" />
          <path class="thylakoid-2" d="M61.83,116.54C60.37,116.84 58.52,111.21 58.46,109.62C58.41,108.27 59.46,108.09 60.60,110.32C61.73,112.54 62.83,116.33 61.83,116.54Z" />
          <path class="thylakoid-1" d="M63.41,115.06C62.36,115.28 61.01,111.17 60.97,110.02C60.93,109.02 61.69,108.91 62.52,110.53C63.35,112.15 64.14,114.91 63.41,115.06Z" />
          <path class="thylakoid-2" d="M65.16,114.74C63.87,115.00 62.24,110.03 62.19,108.63C62.14,107.42 63.08,107.28 64.07,109.25C65.08,111.21 66.05,114.55 65.16,114.74Z" />
          <path class="thylakoid-1" d="M67.32,114.46C65.86,114.75 64.00,109.11 63.94,107.51C63.89,106.15 64.95,105.98 66.08,108.21C67.23,110.44 68.33,114.25 67.32,114.45L67.32,114.46Z" />
          <path class="thylakoid-2" d="M69.04,112.68C67.81,112.92 66.24,108.17 66.19,106.84C66.15,105.68 67.04,105.54 68.00,107.42C68.96,109.3 69.88,112.50 69.04,112.68Z" />
          <path class="thylakoid-1" d="M71.22,112.70C69.85,112.98 68.1,107.67 68.05,106.17C67.99,104.89 68.99,104.73 70.05,106.82C71.13,108.92 72.17,112.50 71.22,112.70Z" />
          <path class="thylakoid-2" d="M73.57,112.70C72.20,112.99 70.45,107.67 70.39,106.18C70.35,104.90 71.33,104.73 72.41,106.83C73.49,108.93 74.51,112.51 73.57,112.70Z" />
          <path class="thylakoid-1" d="M75.19,111.18C73.81,111.47 72.06,106.15 72.00,104.65C71.96,103.37 72.95,103.21 74.03,105.31C75.10,107.40 76.14,110.98 75.19,111.18Z" />
          <path class="thylakoid-2" d="M77.02,110.02C75.95,110.25 74.56,106.06 74.52,104.88C74.49,103.87 75.27,103.74 76.11,105.40C76.95,107.05 77.77,109.86 77.02,110.02Z" />
          <path class="thylakoid-1" d="M78.41,109.14C77.33,109.37 75.95,105.18 75.91,104.01C75.87,103.00 76.66,102.87 77.50,104.52C78.35,106.17 79.15,108.99 78.41,109.14Z" />
          <path class="thylakoid-2" d="M80.34,109.10C79.15,109.35 77.63,104.72 77.58,103.42C77.54,102.30 78.40,102.17 79.33,103.99C80.26,105.82 81.17,108.93 80.34,109.10Z" />
          <path class="thylakoid-1" d="M81.86,107.97C80.67,108.22 79.14,103.60 79.09,102.3C79.05,101.17 79.92,101.04 80.85,102.87C81.78,104.69 82.68,107.80 81.86,107.97Z" />
          <path class="thylakoid-2" d="M83.50,107.01C84.46,106.45 82.68,102.37 81.92,101.46C81.27,100.67 80.59,101.10 81.07,102.92C81.54,104.73 82.83,107.40 83.50,107.01L83.50,107.01Z" />
        </g>
        <g class="granum">
          <path class="thylakoid-1" d="M57.39,104.20C56.01,104.53 54.09,99.22 53.98,97.72C53.90,96.42 54.90,96.23 56.04,98.32C57.19,100.40 58.34,103.97 57.39,104.20Z" />
          <path class="thylakoid-2" d="M58.7,102.49C57.7,102.72 56.28,98.85 56.21,97.75C56.14,96.81 56.88,96.66 57.70,98.19C58.54,99.70 59.39,102.32 58.69,102.49L58.7,102.49Z" />
          <path class="thylakoid-1" d="M60.53,102.40C59.31,102.69 57.60,97.98 57.51,96.65C57.43,95.51 58.32,95.34 59.33,97.18C60.34,99.03 61.37,102.19 60.53,102.40L60.53,102.40Z" />
          <path class="thylakoid-2" d="M62.58,102.06C61.19,102.39 59.25,97.05 59.15,95.54C59.07,94.24 60.07,94.04 61.22,96.14C62.37,98.23 63.53,101.83 62.58,102.06Z" />
          <path class="thylakoid-1" d="M64.33,100.64C63.16,100.92 61.52,96.42 61.44,95.15C61.37,94.05 62.21,93.88 63.19,95.65C64.15,97.42 65.13,100.45 64.33,100.64L64.33,100.64Z" />
          <path class="thylakoid-2" d="M66.25,100.27C64.94,100.58 63.12,95.56 63.02,94.13C62.94,92.91 63.88,92.73 64.97,94.69C66.06,96.67 67.14,100.05 66.25,100.27Z" />
          <path class="thylakoid-1" d="M68.27,99.85C66.97,100.16 65.14,95.14 65.04,93.72C64.96,92.50 65.91,92.31 66.99,94.29C68.08,96.26 69.16,99.63 68.27,99.85Z" />
          <path class="thylakoid-2" d="M69.99,98.70C68.68,99.02 66.86,94.00 66.76,92.58C66.68,91.35 67.62,91.17 68.70,93.14C69.78,95.11 70.88,98.49 69.99,98.70L69.99,98.70Z" />
          <path class="thylakoid-1" d="M71.70,97.55C70.68,97.79 69.24,93.83 69.16,92.71C69.1,91.75 69.84,91.61 70.69,93.16C71.55,94.71 72.41,97.38 71.70,97.55Z" />
          <path class="thylakoid-2" d="M72.86,96.19C71.83,96.43 70.40,92.47 70.33,91.36C70.26,90.39 71.00,90.25 71.85,91.80C72.71,93.35 73.57,96.02 72.86,96.19Z" />
          <path class="thylakoid-1" d="M74.84,96.57C73.71,96.84 72.12,92.47 72.04,91.24C71.96,90.16 72.78,90.01 73.73,91.73C74.67,93.44 75.62,96.39 74.84,96.57Z" />
          <path class="thylakoid-2" d="M76.47,95.89C75.34,96.16 73.75,91.80 73.66,90.55C73.59,89.49 74.41,89.34 75.35,91.05C76.30,92.76 77.25,95.71 76.47,95.89Z" />
          <path class="thylakoid-1" d="M77.75,94.59C76.72,94.84 75.28,90.88 75.21,89.76C75.14,88.79 75.89,88.64 76.74,90.20C77.59,91.76 78.46,94.42 77.75,94.59L77.75,94.59Z" />
          <path class="thylakoid-2" d="M55.11,104.31C56.07,103.75 54.29,99.67 53.53,98.76C52.88,97.97 52.20,98.40 52.68,100.22C53.16,102.03 54.44,104.70 55.11,104.31L55.11,104.31Z" />
        </g>
        <g class="granum">
          <path class="thylakoid-2" d="M71.71,86.13C72.69,85.55 70.94,81.79 70.19,80.97C69.54,80.26 68.85,80.70 69.31,82.38C69.77,84.07 71.03,86.52 71.71,86.13Z" />
          <path class="thylakoid-1" d="M70.16,86.77C71.12,86.17 69.15,81.85 68.34,80.89C67.64,80.05 66.96,80.52 67.52,82.43C68.07,84.36 69.49,87.18 70.16,86.77L70.16,86.77Z" />
          <path class="thylakoid-2" d="M68.43,86.49C69.13,86.05 67.69,82.9 67.10,82.2C66.59,81.59 66.09,81.92 66.50,83.32C66.90,84.73 67.94,86.78 68.43,86.49L68.43,86.49Z" />
          <path class="thylakoid-1" d="M67.33,87.49C68.20,86.96 66.44,83.14 65.72,82.29C65.11,81.55 64.51,81.96 65.00,83.66C65.49,85.36 66.74,87.85 67.33,87.49Z" />
          <path class="thylakoid-2" d="M65.98,88.48C66.95,87.88 64.97,83.54 64.15,82.56C63.44,81.73 62.76,82.19 63.32,84.12C63.88,86.05 65.30,88.89 65.98,88.47L65.98,88.48Z" />
          <path class="thylakoid-1" d="M64.17,88.64C64.99,88.13 63.31,84.47 62.63,83.65C62.03,82.95 61.46,83.34 61.93,84.97C62.41,86.59 63.60,88.98 64.17,88.63L64.17,88.64Z" />
          <path class="thylakoid-2" d="M62.86,89.52C63.78,88.96 61.91,84.87 61.14,83.96C60.48,83.18 59.84,83.62 60.37,85.43C60.89,87.24 62.23,89.91 62.86,89.52Z" />
          <path class="thylakoid-1" d="M61.48,90.44C62.39,89.87 60.53,85.80 59.76,84.89C59.09,84.10 58.45,84.53 58.98,86.35C59.50,88.16 60.84,90.83 61.48,90.44Z" />
          <path class="thylakoid-2" d="M59.84,90.74C60.75,90.18 58.89,86.10 58.12,85.19C57.46,84.39 56.82,84.84 57.34,86.65C57.87,88.47 59.21,91.13 59.84,90.74Z" />
          <path class="thylakoid-1" d="M58.20,91.04C58.92,90.6 57.44,87.38 56.84,86.66C56.32,86.04 55.81,86.39 56.23,87.81C56.64,89.24 57.70,91.34 58.20,91.04Z" />
          <path class="thylakoid-2" d="M56.75,90.89C57.46,90.44 56.00,87.22 55.39,86.51C54.88,85.90 54.38,86.24 54.79,87.67C55.20,89.09 56.25,91.20 56.75,90.89Z" />
          <path class="thylakoid-1" d="M55.85,92.26C56.65,91.78 55.02,88.22 54.36,87.43C53.78,86.75 53.22,87.13 53.68,88.71C54.14,90.29 55.30,92.62 55.85,92.26Z" />
          <path class="thylakoid-2" d="M54.54,92.80C55.33,92.32 53.71,88.76 53.04,87.96C52.46,87.28 51.90,87.66 52.36,89.24C52.82,90.82 53.99,93.14 54.54,92.80Z" />
          <path class="thylakoid-1" d="M53.27,93.28C53.98,92.84 52.51,89.61 51.91,88.90C51.38,88.28 50.87,88.62 51.30,90.06C51.71,91.48 52.77,93.59 53.27,93.28Z" />
        </g>
      </g>
    </g>

    <g id="vacuole">
      <path id="vacuole-tonoplast" class="vacuole-tonoplast" d="M343.01,351.2C367.28,328.34 384.84,271.25 334.19,237.91C283.54,204.58 299.70,108.00 188.88,87.78C158.52,82.23 79.81,115.70 96.71,178.14C106.21,213.22 168.88,239.58 202.34,272.88C237.24,307.61 229.71,337.91 245.29,357.25C260.88,376.58 298.48,393.16 343.01,351.2Z" />

      <g id="druse-crystal" class="druse-crystal">
        <path id="druse-crystal-1" class="druse-crystal" d="M251.67,201.21L248.84,198.55C248.42,198.05 251.42,197.21 252.09,196.8C252.76,196.38 249.92,194.88 249.42,194.46C248.92,194.05 251.76,193.3 251.76,193.3L249.76,191.88C249.76,191.88 251.34,190.38 251.09,190.3C250.84,190.21 248.26,189.8 248.26,189.8L250.22,187.63L247.42,187.21L248.84,184.21C248.84,184.21 245.76,185.3 245.67,184.96C245.59,184.63 245.67,182.71 245.67,182.71C245.67,182.71 244.09,183.88 244.09,183.63C244.09,183.38 244.42,181.05 244.42,181.05L242.42,182.05L241.09,178.55L239.01,180.96L237.51,178.13L235.84,180.38L234.17,177.55L232.76,180.63L230.17,178.13L228.84,180.96L225.57,179.21L224.59,182.05L221.92,181.13L221.92,184.13L219.51,182.63L219.01,184.96L216.59,183.88L217.51,186.55L215.26,186.3L216.67,189.38L214.01,189.8L215.59,192.46L212.09,193.63L215.01,196.05L212.09,197.63L214.67,199.38L212.09,201.21L214.92,202.88L212.92,204.13L215.09,206.05L213.26,207.96L216.42,208.88L215.51,211.46L218.76,211.46L218.51,214.21L220.59,213.55L221.09,215.8L224.09,214.63L224.67,217.38L227.84,215.46C227.84,215.46 227.99,218.21 228.29,217.96C228.59,217.71 230.42,215.05 230.92,215.3C231.42,215.55 232.92,217.8 233.34,217.05C233.76,216.3 235.01,214.13 235.59,214.71C236.17,215.3 238.59,217.21 239.01,216.63C239.42,216.05 240.42,213.05 241.17,213.38C241.92,213.71 243.17,215.21 243.42,214.13C243.67,213.05 242.84,211.21 243.84,211.55C244.84,211.88 247.34,212.3 246.84,210.46C246.34,208.63 246.09,208.21 246.09,208.21L248.17,208.21L248.17,205.88C248.17,205.88 250.51,204.63 250.42,204.38C250.34,204.13 249.67,202.96 249.67,202.96L251.67,201.21Z" />
        <path id="druse-crystal-2" class="druse-crystal" d="M 228.65,209.69 C 228.65,209.69 227.83,207.76 227.80,207.15 227.75,206.53 225.25,207.20 224.81,207.20 224.36,207.21 224.53,204.66 224.39,204.43 224.25,204.19 221.14,204.18 221.24,203.65 221.34,203.11 222.25,201.71 222.21,201.31 222.17,200.92 219.65,199.58 219.67,199.21 219.68,198.85 221.67,198.30 221.76,197.92 221.86,197.55 219.64,196.99 219.53,196.47 219.42,195.96 222.36,196.10 222.36,196.10 L 221.02,194.12 223.27,193.88 223.14,191.36 C 223.14,191.36 225.16,192.01 225.26,191.86 225.36,191.70 224.96,188.34 225.25,188.24 225.54,188.13 228.84,189.75 228.93,189.15 229.03,188.55 229.19,186.59 229.19,186.59 L 231.79,188.28 233.65,186.46 235.29,188.34 237.57,187.45 239.50,191.29 C 239.50,191.29 242.67,190.04 242.85,190.22 243.02,190.41 241.81,193.75 241.81,193.75 241.81,193.75 244.50,193.80 244.62,193.96 244.75,194.11 243.60,197.57 243.60,197.57 243.60,197.57 246.29,198.88 246.28,199.24 246.27,199.60 243.93,201.39 243.83,201.55 243.72,201.71 244.68,203.06 244.68,203.06 244.68,203.06 241.79,204.23 241.66,204.43 241.53,204.64 243.17,207.10 242.95,207.33 242.73,207.55 239.69,207.35 239.69,207.35 239.69,207.35 240.00,209.26 239.77,209.61 239.53,209.98 237.42,208.24 237.42,208.24 237.42,208.24 236.79,210.56 236.34,210.56 235.90,210.57 235.62,208.62 235.62,208.62 235.62,208.62 234.14,210.90 233.67,210.60 233.20,210.29 231.70,207.62 231.51,207.79 231.33,207.97 228.65,209.69 228.65,209.69 Z" />
        <path id="druse-crystal-3" class="druse-crystal" d="M234.14,201.01L236.35,202.09L236.35,200.13L238.15,200.13L237.17,198.51L238.15,196.93L236.14,196.93L236.31,193.8L234.77,195.26L232.94,193.8L232.52,195.76L229.52,195.05L230.50,197.38L228.74,197.95L230.35,199.3L229.00,200.72L231.21,201.05L232.71,203.47L234.14,201.01Z" />
      </g>

      <g id="raphide-crystals" class="raphide-crystals">
        <path class="raphide-crystal" d="M325.73,251.41C326.49,251.41 327.15,252 327.22,252.78L333.22,321.66C333.22,321.69 333.22,321.73 333.22,321.77C333.22,322.60 332.55,323.28 331.72,323.29C330.94,323.29 330.29,322.69 330.23,321.92L324.23,253.04C324.16,252.21 324.77,251.49 325.59,251.41L325.73,251.41Z" />
        <path class="raphide-crystal"  d="M303.68,287.70C304.37,287.37 305.21,287.61 305.61,288.27L341.26,346.93C341.68,347.63 341.45,348.55 340.76,348.98C340.06,349.40 339.13,349.17 338.71,348.48L303.06,289.81C302.64,289.11 302.87,288.19 303.56,287.76L303.68,287.70Z" />
        <path class="raphide-crystal" d="M151.79,123.31C152.20,123.95 152.16,124.74 151.69,125.12L110.10,158.40C109.60,158.80 108.80,158.58 108.32,157.92C108.29,157.89 108.27,157.85 108.25,157.82C107.83,157.17 107.88,156.37 108.35,156.00L149.94,122.72C150.44,122.32 151.23,122.54 151.72,123.19L151.79,123.31Z" />
        <path class="raphide-crystal" d="M147.84,134.78C148.25,135.42 148.21,136.21 147.74,136.59L106.15,169.87C105.65,170.27 104.85,170.05 104.37,169.39C104.34,169.36 104.32,169.32 104.3,169.29C103.88,168.64 103.93,167.84 104.40,167.47L145.99,134.19C146.49,133.79 147.28,134.00 147.77,134.66L147.84,134.78Z" />
        <path class="raphide-crystal" d="M165.86,105.60C166.58,105.88 166.97,106.66 166.77,107.39L148.24,173.55C148.02,174.34 147.19,174.81 146.40,174.59C145.61,174.36 145.15,173.54 145.37,172.75L163.90,106.59C164.12,105.81 164.94,105.34 165.73,105.55L165.86,105.60Z" />
        <path class="raphide-crystal" d="M172.03,98.42C172.75,98.7 173.14,99.48 172.94,100.21L154.41,166.37C154.19,167.16 153.36,167.63 152.57,167.41C151.78,167.18 151.32,166.36 151.54,165.57L170.07,99.41C170.29,98.63 171.11,98.16 171.90,98.37L172.03,98.42Z" />
        <path class="raphide-crystal" d="M162.26,99.58C162.98,99.86 163.37,100.64 163.17,101.37L144.64,167.53C144.42,168.32 143.59,168.79 142.80,168.57C142.01,168.34 141.55,167.51 141.77,166.73L160.30,100.57C160.52,99.79 161.34,99.32 162.13,99.53L162.26,99.58Z" />
      </g>
    </g>

    <g id="plasmodesmata" class="plasmodesmata">
      <path class="plasmodesma" d="M34,100 Q32,105 29,105 H7 Q4,105 2,100 V115 Q4,110 7,110 H29 Q32,110 34,115 Z" />
      <path class="plasmodesma" d="M 132.40,507.27 Q 137.40,509.27 137.40,512.27 V 534.27 Q 137.40,537.27 132.40,539.27 H 147.40 Q 142.40,537.27 142.40,534.27 V 512.27 Q 142.40,509.27 147.40,507.27 Z" />
      <path class="plasmodesma" d="M 39.66,378.69 Q 37.66,383.69 34.66,383.69 H 12.66 Q 9.66,383.69 7.66,378.69 V 393.69 Q 9.66,388.69 12.66,388.69 H 34.66 Q 37.66,388.69 39.66,393.69 Z" />
      <path class="plasmodesma" d="M 386.89,221.63 Q 388.89,226.63 391.89,226.63 H 413.89 Q 416.89,226.63 418.89,221.63 V 236.63 Q 416.89,231.63 413.89,231.63 H 391.89 Q 388.89,231.63 386.89,236.63 Z" />
      <path class="plasmodesma" d="M 382.50,155.61 Q 384.50,160.61 387.50,160.61 H 409.50 Q 412.50,160.61 414.50,155.61 V 170.61 Q 412.50,165.61 409.50,165.61 H 387.50 Q 384.50,165.61 382.50,170.61 Z" />
      <path class="plasmodesma" d="M 262.18,51.06 Q 257.18,49.06 257.18,46.06 V 24.06 Q 257.18,21.06 262.18,19.06 H 247.18 Q 252.18,21.06 252.18,24.06 V 46.06 Q 252.18,49.06 247.18,51.06 Z" />
    </g>
  </g>
</svg>
